<?xml version="1.0" encoding="utf-8"?>
<!-- Generator: Adobe Illustrator 25.0.1, SVG Export Plug-In . SVG Version: 6.00 Build 0)  -->
<svg version="1.1" id="Layer_1" xmlns="http://www.w3.org/2000/svg" xmlns:xlink="http://www.w3.org/1999/xlink" x="0px" y="0px"
	 viewBox="0 0 2500 2500" style="enable-background:new 0 0 2500 2500;" xml:space="preserve">
<style type="text/css">
	.st0{display:none;}
	.st1{display:inline;fill-rule:evenodd;clip-rule:evenodd;fill:#FFFFFF;}
	.st2{display:inline;fill-rule:evenodd;clip-rule:evenodd;}
	.st3{fill:#DC0000;}
</style>
<g class="st0">
	<path class="st1" d="M0,0h2500v2500H0V0z"/>
	<path class="st2" d="M73.5,1053.3v164.1h479.9c55.8,0,127.1-51.6,127.1-136.9c0-34.3,13.1-56.7-27.2-102.1l-61.4-72.7
		c-35.2-32.8,4.2-32.8,33.7-32.8h202.6v344.6H989V872.9h216.6V725.3H504.2c-85.3,0-127.1,81.9-124.7,124.6
		c2.4,42.7,10.2,96.3,81.1,160.8c64.7,58.8-32,42.7-41.7,42.7L73.5,1053.3L73.5,1053.3z M1560.9,725.3h-259.2l-145.3,492.1h161.7
		l26.2-68.9h170.6l25.3,68.9h158.4L1560.9,725.3L1560.9,725.3z M1380.4,1030.4l55.8-180.5l52.5,180.5H1380.4z M2210.6,1053.3
		c-62.3,0-62.3-23-62.3-23c53.4,0,100.8-77.8,100.8-157.5s-77.8-147.6-140.2-147.6h-348.8v492.1h177.2v-164.1
		c0,0,75.5,88.6,114.8,124.7c39.4,36.1,42.7,39.4,96.1,39.4h278.2v-164.1C2426.5,1053.3,2273,1053.3,2210.6,1053.3L2210.6,1053.3z
		 M2049.8,938.5h-112.5v-88.6h112.5C2101.4,849.9,2110.3,938.5,2049.8,938.5z M73.5,1279.8h181.3l45.9,164.1l42.7-164.1h190.3
		l49.2,164.1l49.2-164.1h157.5L645.3,1772H500.9l-63.3-233l-71.3,233H218.7L73.5,1279.8z M1161.8,1282.6H902.6l-145.3,492.1H919
		l26.3-68.9h170.6l25.3,68.9h158.4L1161.8,1282.6z M981.3,1587.7l55.8-180.5l52.5,180.5H981.3z M2213.9,1427.4
		c-29.5,0-61.7,3.4-26.5,36.3l61.4,72.7c40.3,45.4,39.7,64.3,39.7,98.7c0,85.3-84.4,136.9-140.2,136.9l-387.7,2.6
		c-53.4,0-56.7-3.3-96.1-39.4s-114.8-124.7-114.8-124.7v164.1h-177.2v-492.1h348.8c62.3,0,140.2,67.9,140.2,147.6
		s-47.4,157.5-100.8,157.5c0,0,23.5,23.6,62.9,23.6s191,0.2,191,0.2c9.7,0,106.4,16.1,41.7-42.7c-70.9-64.5-78.8-118.1-81.1-160.8
		s34.5-128.2,119.8-128.2h331.6v147.7L2213.9,1427.4L2213.9,1427.4L2213.9,1427.4z M1662.1,1495.7h-112.5v-88.6h112.5
		C1713.7,1407.1,1722.6,1495.7,1662.1,1495.7z"/>
</g>
<path class="st3" d="M96.5,1706.4V779.3l0.4-0.5c0.2-0.1,0.3-0.3,0.5-0.4c0.8-0.1,1.6-0.2,2.4-0.2c765.8,0,1531.7,0,2297.5,0
	c0.7,0.1,1.3,0.3,2,0.5v927.7L96.5,1706.4L96.5,1706.4z M1668.5,1631.9c36.7-232.1,73.4-464,110.1-695.7l1.3,0.1v695.2
	c9,1.3,261.2,0.8,265.4-0.4v-139.5c-21.2,0-41.9,0-62.7,0c-20.8,0-41.8,0.3-62.5-0.2c-1.3-19.9-0.7-173.2,0.9-178.4h124.4v-142.5
	h-83.7c-6.9,0-13.7,0.1-20.6,0s-13.9,0.3-20.8-0.2V995H2045c1.3-6.9,1.1-138.1-0.1-142.5h-394.3c-21.3,156.2-42.7,312.2-64,468h-1.4
	c-21.1-156-42.2-312.1-63.4-468.4h-7.4l-134.4,0.3c-0.2,0-0.3,0.2-0.5,0.3c-0.2,0.2-0.3,0.4-0.5,0.7c5,40.2,10.1,80.6,15.3,121.8
	c-1.2-0.9-1.6-1.1-1.8-1.4c-12.8-23.6-29.4-45-49-63.3c-18.9-17.7-40.8-31.8-64.6-41.8c-27.7-11.5-56.7-16.6-86.6-16.6
	c-45.8-0.1-91.6,0-137.4,0c-1.7,0-3.5,0.3-5.7,0.4v6.4c-0.2,169.9-0.4,339.7-0.6,509.6c-0.1,52.4-0.1,104.8-0.3,157.2v6.5l-1.1,0.1
	c-34-226.6-68-453.3-102-680h-187c-35.4,236.4-70.8,472.7-106.1,708.7c-0.7-0.3-0.9-0.5-0.9-0.7c0-235.1,0-470.2-0.1-705.3
	c0-0.6-0.1-1.2-0.2-1.8c-0.1-0.2-0.2-0.4-0.3-0.5c-0.2-0.2-0.3-0.4-0.5-0.5H472.6c-21.2,132.7-42.4,265.3-63.6,397.8h-1.1
	c-20.6-132.4-41.3-265-61.9-397.5H167.3v779c7.4,1.2,136,0.9,140.9-0.4v-365.2l1-0.1c20.8,122,41.5,244,62.3,366h75.3
	c20.5-122.2,41-244.2,61.4-366l1.3,0.1v366h271.3c2.8-20.2,5.5-40.1,8.3-59.9s5.1-39.7,8.3-59.2H906c5.5,39.9,10.9,79.5,16.3,119
	h267.4v-252.7l31.9-4.6c22.5,86,45,171.7,67.3,257.1c9.5,1.3,133.8,0.8,138.3-0.6c-29.4-100.4-58.7-200.6-88-300.6
	c53.7-47.6,82.6-106,84.7-177.2c0.1,0.1,0.4,0.2,0.4,0.3c26.4,158.5,52.9,317,79.3,475.5c0,0.2,0,0.4,0,0.6s0.1,0.4,0.2,0.6
	c0,0.2,0.1,0.4,0.2,0.6c0.2,0.4,0.4,0.7,0.6,1.1c0.1,0.2,0.2,0.4,0.3,0.5c0.3,0.2,0.6,0.3,1,0.5L1668.5,1631.9z M2070.3,852.3v779.6
	h258.3v-140.6h-119.1V958.6c0-17.7,0-35.5,0-53.3s0.1-35.3-0.1-53H2070.3z"/>
<path class="st3" d="M1175,991.7c15.8,0.6,30,4.4,43.2,12.1c19.7,11.5,32.3,28.8,40,49.9c5.3,14.6,8.4,29.9,9,45.4
	c0.3,6.6,0.9,13.3,0.7,19.9c-0.4,22.3-4,44.1-13.4,64.5c-11.1,24.3-28,43.1-53.2,53.5c-8.3,3.4-17.2,5.1-26.2,5.1L1175,991.7z"/>
<path class="st3" d="M837.8,1061.8c13.1,108.9,26.1,217.4,39.2,326.3h-77.3c-0.2-1.2-0.4-2.5-0.3-3.7
	c12.3-106.6,24.7-213.1,37.1-319.7C836.8,1063.6,837.2,1062.7,837.8,1061.8z"/>
</svg>
