<?xml version="1.0" encoding="utf-8"?>
<!-- Generator: Adobe Illustrator 25.0.1, SVG Export Plug-In . SVG Version: 6.00 Build 0)  -->
<svg version="1.1" id="Layer_1" xmlns="http://www.w3.org/2000/svg" xmlns:xlink="http://www.w3.org/1999/xlink" x="0px" y="0px"
	 viewBox="0 0 2500 2500" style="enable-background:new 0 0 2500 2500;" xml:space="preserve">
<style type="text/css">
	.st0{display:none;fill-rule:evenodd;clip-rule:evenodd;fill:#FFFFFF;}
	.st1{fill-rule:evenodd;clip-rule:evenodd;fill:#F7F7F7;}
</style>
<g>
	<path class="st0" d="M0,0h2500v2500H0V0z"/>
	<path class="st1" d="M187.2,1235.2c0,30.4,0,115.9,2.8,127c8.3,0,33.1,2.8,44.2,5.5l2.8,8.3c-11.1-2.8-52.4-2.8-69-2.8
		c-19.3,0-58,0-66.2,2.8v-8.3c5.5-2.8,30.4-2.8,38.6-5.5c2.8-16.6,2.8-93.8,2.8-127v-16.6c0-11.1,0-77.3-2.8-91.1
		c-5.5,0-30.4-2.7-38.6-2.7v-8.3h82.8c41.4,0,74.5,2.8,91.1,11c33.1,11.1,35.9,35.9,35.9,44.2c0,24.9-8.3,44.2-24.9,58
		c-22.1,24.9-66.2,33.1-80,35.9l2.8-8.3c11.1-5.5,55.2-16.6,55.2-71.8c0-22.1-11-41.4-27.6-49.7c-13.8-8.3-33.1-8.3-46.9-8.3
		c-2.8,11.1-2.8,60.7-2.8,93.8v13.9H187.2z M695.2,1246.2c0,46.9,0,107.7,2.8,115.9c8.3,2.8,30.4,2.8,38.6,5.5v8.3
		c-8.3-2.8-49.7-2.8-71.8-2.8c-11.1,0-46.9,0-58,2.8l2.8-8.3c5.5,0,30.4-5.5,38.6-5.5c2.8-16.6,2.8-82.8,2.8-118.7v-22.1
		c0-11,0-80-2.8-93.8c-8.3,0-30.4-2.7-38.6-2.7l-2.8-8.3h129.7v8.3c-8.3,0-27.6,2.7-38.6,2.7c-2.8,8.3-2.8,49.7-2.8,96.6
		L695.2,1246.2L695.2,1246.2z M1277.6,1389.8c-52.4-38.6-110.4-118.7-127-135.2c-11,11.1-52.4,77.3-66.2,107.7
		c8.3,2.8,22.1,2.8,30.4,5.5v8.3c-5.5,0-35.9-2.8-58-2.8c-19.3,0-30.4,0-38.6,2.8l2.8-8.3c5.5-2.8,13.8-2.8,22.1-5.5
		c13.8-8.3,85.6-104.9,99.4-118.7c-27.6-33.1-74.5-96.6-91.1-115.9c-5.5,0-16.6-2.7-22.1-2.7l-2.7-8.3h118.7l-2.8,8.3
		c-13.8,0-24.8,2.7-30.4,2.7c2.8,11.1,46.9,74.5,55.2,85.6c11.1-13.8,46.9-66.2,58-85.6c-8.3,0-22.1-2.7-27.6-2.7v-8.3h88.3v8.3
		c-8.3,0-19.3,2.7-24.9,2.7c-5.5,2.8-74.5,82.8-85.6,96.6c22.1,27.6,93.8,127,118.7,162.9L1277.6,1389.8L1277.6,1389.8z
		 M1716.5,1367.7c13.8-2.8,27.6-2.8,38.6-5.5c-8.3-19.3-33.1-96.6-38.6-107.7c-13.8,0-71.8,2.8-85.6,5.5
		c-2.7,5.5-22.1,74.5-24.8,102.1c8.3,2.8,22.1,2.8,30.3,5.5l2.8,8.3c-11-2.8-46.9-2.8-58-2.8s-35.9,0-44.1,2.8l2.7-8.3
		c11.1-2.8,22.1-2.8,30.4-5.5c13.8-22.1,85.6-220.8,91.1-234.6c-8.3,0-19.3-2.7-27.6-2.7l-2.8-8.3h118.7l-2.8,8.3
		c-8.3,0-19.3,2.7-27.6,2.7c5.5,16.6,24.8,74.5,38.6,113.2c11.1,27.6,33.1,88.3,49.7,121.5c11,2.8,22.1,2.8,33.1,5.5v8.3
		c-2.8-2.8-44.1-2.8-63.5-2.8c-11.1,0-52.5,0-60.7,2.8L1716.5,1367.7L1716.5,1367.7L1716.5,1367.7z M1675.1,1135.8
		c-11.1,30.4-35.9,93.8-38.6,107.7h77.3C1705.5,1218.6,1683.4,1155.2,1675.1,1135.8z M2149.9,1218.6v-91.1c-5.5,0-30.4-2.7-38.6-2.7
		l-2.8-8.3h82.8c35.9,0,82.8,0,107.6,11c19.3,5.5,30.4,19.3,30.4,41.4s-27.6,52.4-55.2,69c5.5,8.3,66.2,104.9,104.9,143.5l-19.3,2.8
		c-27.6-11.1-124.2-124.2-129.7-129.7h-36v11.1c0,22.1,2.8,80,2.8,96.6c5.5,2.8,30.4,2.8,38.6,5.5l2.8,8.3
		c-11.1-2.8-46.9-2.8-63.5-2.8s-58,0-66.3,2.8l2.8-8.3c5.5,0,27.6-2.8,38.6-5.5L2149.9,1218.6L2149.9,1218.6z M2194,1243.5
		c13.8,0,30.4,0,46.9-5.5c13.8-5.5,41.4-22.1,41.4-60.7c0-22.1-22.1-49.7-85.6-49.7c0,13.8-2.8,80-2.8,104.9L2194,1243.5
		L2194,1243.5L2194,1243.5z M1158.9,1516.7c0,2.8-2.8,5.5-2.8,8.3s5.5,2.8,8.3,2.8v2.8h-19.3v-2.8c2.8,0,5.5,0,5.5-2.8
		c5.5-5.5,22.1-46.9,22.1-49.7c2.8-2.8,2.8-5.5,2.8-5.5h2.8c0,0,0,2.8,2.8,5.5c2.8,5.5,11,30.3,13.8,35.9c5.5,16.6,5.5,16.6,11,16.6
		v2.8h-22.1v-2.8c2.8,0,5.5,0,5.5-2.8s-5.5-13.8-5.5-16.6h-8.3c-2.8,0-8.3,0-13.8,2.8L1158.9,1516.7z M1164.4,1505.7h16.6
		c-2.8-8.3-5.5-13.8-8.3-22.1L1164.4,1505.7z M1288.6,1516.7v-13.8c0-16.5,0-16.5-5.5-16.5v-2.8h5.5l2.8,2.8l5.5-2.8v2.8
		c0,0-2.8,0-2.8,2.8v19.3c-2.8,0-2.8,11.1-2.8,13.8c0,0,0,5.5,2.8,5.5v2.8h-2.8l-11.1-11.1l-22.1-22.1l-2.8-2.7v24.8
		c0,5.5,0,8.3,8.3,8.3v2.8h-19.3v-2.8c5.5,0,5.5-2.8,5.5-8.3v-22.1c0-5.5,0-11-5.5-11v-2.8h11.1c5.5,5.5,5.5,5.5,16.5,19.3
		c2.8,2.8,8.3,5.5,11.1,8.3L1288.6,1516.7L1288.6,1516.7z M1327.3,1527.8c2.8,0,5.5,0,8.3-2.8v-16.6v-19.3c0,0-2.8-2.8-8.3-2.8v-2.8
		h22.1v2.8c-2.8,0-2.8,0-5.5,2.8v35.9c0,2.8,0,2.8,5.5,2.8v2.8h-22.1V1527.8z M1388,1500.2v-5.5c0-5.5,0-8.3-8.3-8.3l2.8-2.8h2.8
		c5.5,2.8,8.3,2.8,11.1,2.8c5.5,11,5.5,13.8,11.1,22.1c0,2.8,5.5,11.1,5.5,11.1l5.5-11.1l2.8-5.5l8.3-16.5h13.8
		c-5.5,2.8-8.3,2.8-8.3,8.3c0,2.7,0,27.6,2.8,30.3c0,2.8,0,2.8,5.5,2.8v2.8h-19.3v-2.8c2.8,0,5.5,0,5.5-8.3v-24.8
		c-11.1,16.5-13.8,24.8-19.3,35.9c-2.8-5.5-2.8-8.3-11.1-22.1l-5.5-11.1v5.5c-2.8,5.5-2.8,13.8-2.8,19.3s0,5.5,8.3,5.5v2.8h-19.3
		v-2.8c8.3,0,8.3-2.8,8.3-11.1v-16.5H1388z M1484.6,1519.5c-2.8,2.8-2.8,5.5-2.8,5.5c0,2.8,2.8,2.8,5.5,2.8v2.8h-13.8v-2.8
		c0,0,2.8,0,2.8-2.8c2.8-2.8,16.6-33.1,16.6-35.9s2.8-2.8,2.8-5.5c2.8,2.8,2.8,2.8,2.8,5.5c2.8,5.5,8.3,24.8,11.1,27.6
		c2.8,11.1,5.5,11.1,8.3,11.1v2.8h-16.6v-2.8c2.8,0,2.8,0,2.8-2.8c0,0-2.8-8.3-2.8-11.1h-16.6L1484.6,1519.5L1484.6,1519.5
		L1484.6,1519.5z M1487.4,1511.2h11.1c0-5.5-2.8-11.1-5.5-13.8L1487.4,1511.2L1487.4,1511.2z M1592.3,1489.2h-16.6v30.3
		c0,8.3,0,8.3,2.8,8.3h5.5v2.8h-24.9c2.8,0,8.3-2.8,8.3-2.8v-19.3v-19.3h-5.5c-11.1,0-11.1,0-11.1,2.7h-2.8c2.8-5.5,2.8-5.5,2.8-8.3
		h2.8c2.8,2.8,13.8,2.8,19.3,2.8s16.6-2.8,19.3-2.8h2.8v8.3h-2.8L1592.3,1489.2L1592.3,1489.2L1592.3,1489.2z M1625.4,1527.8
		c2.8,0,5.5,0,8.3-2.8v-16.6v-19.3c0,0,0-2.8-5.5-2.8v-2.8h22.1v2.8c-5.5,0-5.5,0-5.5,2.8c-2.8,0-2.8,13.8-2.8,16.5v19.3
		c0,2.8,2.8,2.8,8.3,2.8l-2.8,2.8h-22.1V1527.8z M1705.5,1483.7c13.8,0,24.8,11.1,24.8,24.8c0,11.1-11,22.1-24.8,22.1
		c-16.6,0-24.8-11.1-24.8-22.1C1680.6,1491.9,1694.4,1483.7,1705.5,1483.7z M1708.2,1527.8c2.8,0,13.8-2.8,13.8-13.8
		s-5.5-27.6-19.3-27.6c-2.8,0-13.8,2.8-13.8,16.5C1688.9,1516.7,1694.4,1527.8,1708.2,1527.8z M1807.6,1516.7v-13.8
		c0-16.5-2.8-16.5-8.3-16.5v-2.8h5.5c2.8,0,2.8,2.8,5.5,2.8l5.5-2.8v2.8c-2.8,0-2.8,0-5.5,2.8v41.4h-2.8c-2.8-2.8-5.5-8.3-11.1-11.1
		l-22.1-22.1c0,0,0-2.7-2.8-2.7v24.8c0,5.5,0,8.3,8.3,8.3v2.8h-2.8h-13.8v-2.8c2.8,0,5.5-2.8,5.5-8.3v-22.1c0-5.5,0-11-5.5-11v-2.8
		h8.3l19.3,19.3l8.3,8.3L1807.6,1516.7L1807.6,1516.7z M1904.2,1514c2.8,5.5,2.8,8.3,11.1,11.1c2.7,2.8,8.3,2.8,13.8,2.8
		c2.8,0,8.3,0,8.3-11.1c0-5.5-5.5-8.3-13.8-13.8c-11.1-2.8-16.6-5.5-16.6-16.5c0-11.1,8.3-16.6,19.3-16.6h19.3l-2.8,5.5l2.8,5.5v2.8
		h-2.8c-2.8-11.1-16.6-11.1-16.6-11.1c-8.3,0-11,5.5-11,11.1c0,2.8,0,8.3,13.8,11.1c8.3,2.7,16.6,8.3,16.6,19.3
		c0,5.5-2.8,16.6-22.1,16.6H1907C1907,1525,1904.2,1522.3,1904.2,1514L1904.2,1514z M2031.2,1489.2h-13.8v30.3c0,8.3,0,8.3,2.7,8.3
		h2.8v2.8h-22.1l5.5-2.8c2.8-2.8,2.8-16.6,2.8-19.3v-19.3h-8.3c-8.3,0-8.3,0-11.1,2.7h-2.8c2.8-5.5,2.8-5.5,5.5-8.3h2.8
		c2.8,2.8,13.8,2.8,16.6,2.8c5.5,0,16.5-2.8,22.1-2.8h2.8c0,2.8-2.8,5.5-2.8,8.3h-2.8L2031.2,1489.2L2031.2,1489.2L2031.2,1489.2z
		 M2072.6,1494.7c0-8.3,0-8.3-5.5-8.3h22.1h-2.8c-5.5,2.8-5.5,2.8-5.5,19.3c0,13.8,0,16.6,2.8,19.3c2.8,2.8,8.3,2.8,11.1,2.8
		c0,0,8.3,0,11.1-8.3c2.7-2.8,2.7-11.1,2.7-19.3c0-13.8,0-13.8-5.5-13.8l2.8-2.8c2.7,0,2.7,2.8,5.5,2.8h5.5c0,0-2.8,0-2.8,2.8
		c-2.7,0-2.7,8.3-2.7,11c0,5.5,0,19.3-2.8,22.1c-2.7,8.3-11,8.3-16.5,8.3c-8.3,0-19.3,0-19.3-13.8L2072.6,1494.7L2072.6,1494.7
		L2072.6,1494.7z M2152.7,1511.2v-16.5c0-5.5,0-8.3-2.8-8.3h11.1c2.8,0,8.3-2.8,11.1-2.8c13.8,0,24.8,11.1,24.8,24.8
		c0,8.3-5.5,22.1-27.6,22.1h-11.1h-11.1v-2.8c5.5,0,5.5,0,5.5-11.1v-5.4H2152.7z M2169.2,1486.4c0,0-2.8,0-8.3,2.8v35.9
		c2.8,2.8,5.5,2.8,11.1,2.8c8.3,0,16.6-8.3,16.6-19.3C2188.5,1491.9,2177.5,1486.4,2169.2,1486.4L2169.2,1486.4z M2229.9,1527.8
		c2.8,0,5.5,0,5.5-2.8c2.8,0,2.8-13.8,2.8-16.6c0-2.8,0-16.6-2.8-19.3c0,0,0-2.8-5.5-2.8v-2.8h22.1v2.8c-2.8,0-5.5,0-5.5,2.8v35.9
		c0,2.8,0,2.8,5.5,2.8v2.8h-22.1V1527.8z M2310,1483.7c13.8,0,22.1,11.1,22.1,24.8c0,11.1-8.3,22.1-22.1,22.1
		c-16.5,0-24.8-11.1-24.8-22.1C2285.2,1491.9,2296.2,1483.7,2310,1483.7z M2310,1527.8c5.5,0,13.8-2.8,13.8-13.8
		s-2.8-27.6-16.6-27.6c-2.8,0-13.8,2.8-13.8,16.5C2293.4,1516.7,2298.9,1527.8,2310,1527.8z M2368,1516.7c0,5.5,2.8,8.3,5.5,8.3
		c5.5,2.8,8.3,2.8,11.1,2.8s8.3,0,8.3-5.5c0-8.3-5.5-8.3-13.8-11.1c-5.5-2.8-11.1-5.5-11.1-13.8s5.5-13.8,16.6-13.8l8.3,2.8
		c2.8,0,2.8,0,2.8-2.8v11.1c-2.8-8.3-11-8.3-13.8-8.3c-5.5,0-8.3,5.5-8.3,8.3c0,2.7,2.8,5.5,11.1,8.3c5.5,2.8,13.8,5.5,13.8,16.6
		c0,2.8-2.8,11.1-16.5,11.1h-14c0-2.8,0-5.5-2.8-11.1L2368,1516.7L2368,1516.7z"/>
</g>
</svg>
