<?xml version="1.0" encoding="utf-8"?>
<!-- Generator: Adobe Illustrator 25.0.1, SVG Export Plug-In . SVG Version: 6.00 Build 0)  -->
<svg version="1.1" id="Layer_1" xmlns="http://www.w3.org/2000/svg" xmlns:xlink="http://www.w3.org/1999/xlink" x="0px" y="0px"
	 viewBox="0 0 2500 2500" style="enable-background:new 0 0 2500 2500;" xml:space="preserve">
<style type="text/css">
	.st0{display:none;fill:#FFFFFF;}
	.st1{fill:#F7F7F7;}
</style>
<path class="st0" d="M0,0h2500v2500H0V0z"/>
<path class="st1" d="M1257.5,857.6c16.5,0.8,32.3,7.1,44.8,17.9c17,16.1,21.5,43,13.4,64.5c-31.3,64.4-105.8,107.5-156.6,121.7
	c-30.4,7.2-68.9,7.2-96.7-3.6c-13.4,8.1-24.8,34.1-41.2,23.3c-23.7-18.5-3.2-47.6-16.9-68.2c-2.8-4.2-9.9-4.6-13.5-11.5
	c-18.8-41.2,4.5-80.6,30.4-111.9C1064.4,841.6,1188.5,787.8,1257.5,857.6L1257.5,857.6z M1113.4,889.9c-24.2,4.5-51.5,15-66.2,32.2
	c-14.8,17.2-24.2,34-15.2,51.9c31.3-23.3,46.5-55.5,81.5-75.2C1113.4,895.2,1118.7,892.5,1113.4,889.9z M1259.3,898.8
	c-61.8-5.4-108.3,41.2-152.2,85.9c-2.7,7.2-18.8,15.2-6.3,23.3c59.1,5.4,115.5-11.6,158.5-51c12.5-11.6,21.5-26.8,15.2-43
	C1271.8,907.8,1265.5,901.5,1259.3,898.8z M1794.5,1165.6c28.7,69.8,52.8,179.9,0,247.1c-14.3,16.1-39.4,31-55.5,18.8
	c-59.1-47.4-84.1-115.5-120.8-176.3c-5.4-2.7-5.4,4.5-8.1,7.2c-13.4,61.8,11.6,142.3-30.4,190.7c-16.1,2.7-31.2-5.6-36.7-21.5
	c-20.6-63.6,0.9-129.8,6.2-193.4c12.5-32.2,17.9-69.8,45.7-94c44.8,17.9,66.2,68,92.2,104.7c18.8,27.7,34,59.1,55.5,84.1
	c18.8-8.1,9.5-32.6,9-47.4c-7.2-58.2-23.3-111.9-38.5-167.4c-0.9-14.3-8.9-38.5,6.3-47.4C1759.7,1088.6,1776.6,1130.7,1794.5,1165.6
	z M1524.2,1144.1c0,13.4-10.7,30.2-19.7,32.2c-85.9,13.4-181.7,5.4-262.3,32.2c-2.7,9.8,8.9,11.6,15.2,14.3
	c68.9,10.7,141.4,13.4,208.6,30.4c35.5,9,48.4,51,51,85.9c1.6,27.5-8.9,60.9-35.8,79.7c-66.2,42.1-167.4,40.3-234.5,1.8
	c-25.7-14.4-50.1-37.6-51.9-66.2c0.2-22.7,9.9-40.7,26-49.2c64.5-26,144.1-11.6,199.6,21.5c3.6,17.9-15.8,16.9-25.1,23.3
	c-61.8,35.8-108.3-40.3-165.6-12.5c-8.1,5.4-13.9,20.3-4.5,25.1c70.7,31.3,149.5,8.9,219.3-10.7c8.1-2.7,17.9-10.7,18.8-18.8
	c-2.7-28.7-34.9-34.9-55.5-43c-60.9-15.2-128-15.2-193.4-21.5c-12.5-2.7-28.5-11.4-32.2-21.5c-7.2-21.5-7.2-51,8.9-68.9
	c83.2-73.4,209.4-67.1,315.1-47.4C1513.5,1133.3,1521.5,1136,1524.2,1144.1L1524.2,1144.1z M1133.1,1178.1
	c8.1,85.9,12.5,165.6,10.7,256c-1.8,11.6-15.2,14.3-24.2,18.8c-14.3,2.7-32.8-0.4-38.5-8.1c-20.6-33.1-13.4-77.9-15.2-118.2
	c2.7-63.5,1.8-132.5,19.7-191.6c3.4-8.6,13.4-16.1,21.5-10.8C1128.6,1135.1,1132.2,1156.6,1133.1,1178.1L1133.1,1178.1z
	 M2127.6,1165.6c4.3,7.2,8.8,18.4,0,23.3c-40.3,17.9-94.9,9.8-141.4,15.2c-12.5,10.7-22.4,28.6-17.9,44.8c4.5,2.7,8.5,6.8,13.4,6.3
	c28.6,1.8,71.6-13.4,90.4,13.4c4.6,8-0.6,37.8-13.4,38.5c-34.9,4.5-92.4-4.4-109.2,4.5c-21.5,14.3-19.7,42.1-27.8,64.5
	c15.2,9.8,31.2-0.2,49.2-2.7c33.2-5.4,69.9-15.2,103-8.1c6.3,11.6,15.2,24.2,8.9,38.5c-56.4,44.8-129.2,90.6-206.8,58.2
	c-29.1-13-42.1-57.3-32.2-94.9c6.3-26.9,34-52.8,17-81.5c-2.7-12.5,4.5-23.3,15.2-26c29.5,0,23.3-36.7,38.5-53.7
	c-17-18.8-60-17.9-55.5-55.5c20.6-10.7,45.7-7.2,68.9-10.7c52.8-10.8,111.9-17,165.6-10.8C2104.3,1131,2118.6,1152.1,2127.6,1165.6z
	 M849.3,961.5c82.6,67.5,189.8,182.6,176.3,315.1c-16.1,104.7-127.1,183.5-221.1,208.6c-91.3,26.8-205.9,24.2-299,2.7
	c-6.3,17-12.5,37.6-32.2,44.8c-12.5,4.5-28.7,1.8-38.5-6.3c-27.7-26-5.4-76.1-45.7-92.2c-78.8-33.1-163.8-98.5-204.1-179
	c-5.4-16.1,0.9-32.2,10.7-44.7c61.8-49.2,139.6-68.9,217.5-84.1c4.5,1.8,2.7-4.5,6.3-6.3c4.5-53.7,6.3-108.3,23.3-156.7
	c3.9-6.8,13.4-8.9,19.7-4.5c49.2,37.6,26,108.3,47.4,159.3c94,4.5,188,8.9,262.3,61.8c25.1,20.6,31.2,59.9,23.3,82.4
	c-7.9,22.4-34,38.5-58.2,40.3c-16.1,0-46.5,1.6-44.8-10.7c1.8-12.3,54.8-32.5,38.5-49.2c-23.4-24.1-140.4-38.5-212.9-47.4
	c-8.9-1.8-17.2,0.9-17.2,10.7c-1.8,68-7.2,143.2,4.5,208.6c0.9,4.5,6.3,9.9,10.8,10.7c128,20.6,263.2,8.9,363.4-64.4
	c46.5-37.6,61.8-90.4,53.7-148.6c-40.3-162-209.5-259.6-348.2-322.3c-135.2-59.1-284.7-89.5-444.9-81.5
	c-25.5,1.9-65.9,10.7-66.2,19.7s45.8,6.2,40.3,23.3s-52.4,6.9-66.2,2.7c-13.9-4.3-12.5-24.2-8.9-36.7
	c34.9-61.8,132.3-66.8,176.3-68.9C459,742.2,694.4,834.9,849.3,961.5L849.3,961.5z M410.7,1201.4c-61.8,0.9-127.1,7.2-184.4,28.6
	c-11.6,4.5-26,17-17,32.2c23.3,31.3,56.5,57,87.7,75.2c31.2,18.1,72.5,41.2,110.1,46.6c8.9-58.2,8.9-115.5,8.1-175.5
	C411.5,1206.7,415.1,1203.2,410.7,1201.4L410.7,1201.4z M2260.9,1119.9c-2.7,77.9-75.2,126.2-75.2,204.1c2.7,2.7,4.5,6.3,8.1,4.5
	c58.2-63.6,115.5-154,200.5-180.8c22.4-1.8,42.7,17.7,51,32.2c29.5,59.1,22.4,142.3-18.8,196c-42.5,52.7-116.4,105.6-200.5,96.7
	c-34.9,85.9-59.1,176.3-72.5,270.3c-7.2,18.8-24.1,1.8-34.9-1.8c-72.5-57.3-13-208.9-8.1-228.3c4.9-19.3,24.3-64.8,38.5-102.9
	c-34-60.9-12.5-134.3,15.2-190.7c21.5-37.6,51-75.2,86-103.8C2254.7,1115.4,2258.2,1116.3,2260.9,1119.9L2260.9,1119.9z
	 M2405.1,1216.6c-10.7-1.8-15.2,12.5-24.2,15.2c-41.2,46.5-82.4,93.1-103,148.6c27.8,3.6,51-14.3,75.2-24.2
	c41.2-26,67.1-68.9,64.4-118.2C2415.8,1230,2408.7,1223.7,2405.1,1216.6L2405.1,1216.6z"/>
</svg>
