<?xml version="1.0" encoding="utf-8"?>
<!-- Generator: Adobe Illustrator 25.0.1, SVG Export Plug-In . SVG Version: 6.00 Build 0)  -->
<svg version="1.1" id="Layer_1" xmlns="http://www.w3.org/2000/svg" xmlns:xlink="http://www.w3.org/1999/xlink" x="0px" y="0px"
	 viewBox="0 0 2500 2500" style="enable-background:new 0 0 2500 2500;" xml:space="preserve">
<style type="text/css">
	.st0{display:none;}
	.st1{display:inline;fill-rule:evenodd;clip-rule:evenodd;fill:#FFFFFF;}
	.st2{display:inline;fill-rule:evenodd;clip-rule:evenodd;}
	.st3{fill:#F7F7F7;}
</style>
<g class="st0">
	<path class="st1" d="M0,0h2500v2500H0V0z"/>
	<path class="st2" d="M73.5,1053.3v164.1h479.9c55.8,0,127.1-51.6,127.1-136.9c0-34.3,13.1-56.7-27.2-102.1l-61.4-72.7
		c-35.2-32.8,4.2-32.8,33.7-32.8h202.6v344.6H989V872.9h216.6V725.3H504.2c-85.3,0-127.1,81.9-124.7,124.6
		c2.4,42.7,10.2,96.3,81.1,160.8c64.7,58.8-32,42.7-41.7,42.7L73.5,1053.3L73.5,1053.3z M1560.9,725.3h-259.2l-145.3,492.1h161.7
		l26.2-68.9h170.6l25.3,68.9h158.4L1560.9,725.3L1560.9,725.3z M1380.4,1030.4l55.8-180.5l52.5,180.5H1380.4z M2210.6,1053.3
		c-62.3,0-62.3-23-62.3-23c53.4,0,100.8-77.8,100.8-157.5s-77.8-147.6-140.2-147.6h-348.8v492.1h177.2v-164.1
		c0,0,75.5,88.6,114.8,124.7c39.4,36.1,42.7,39.4,96.1,39.4h278.2v-164.1C2426.5,1053.3,2273,1053.3,2210.6,1053.3L2210.6,1053.3z
		 M2049.8,938.5h-112.5v-88.6h112.5C2101.4,849.9,2110.3,938.5,2049.8,938.5z M73.5,1279.8h181.3l45.9,164.1l42.7-164.1h190.3
		l49.2,164.1l49.2-164.1h157.5L645.3,1772H500.9l-63.3-233l-71.3,233H218.7L73.5,1279.8z M1161.8,1282.6H902.6l-145.3,492.1H919
		l26.3-68.9h170.6l25.3,68.9h158.4L1161.8,1282.6z M981.3,1587.7l55.8-180.5l52.5,180.5H981.3z M2213.9,1427.4
		c-29.5,0-61.7,3.4-26.5,36.3l61.4,72.7c40.3,45.4,39.7,64.3,39.7,98.7c0,85.3-84.4,136.9-140.2,136.9l-387.7,2.6
		c-53.4,0-56.7-3.3-96.1-39.4s-114.8-124.7-114.8-124.7v164.1h-177.2v-492.1h348.8c62.3,0,140.2,67.9,140.2,147.6
		s-47.4,157.5-100.8,157.5c0,0,23.5,23.6,62.9,23.6s191,0.2,191,0.2c9.7,0,106.4,16.1,41.7-42.7c-70.9-64.5-78.8-118.1-81.1-160.8
		s34.5-128.2,119.8-128.2h331.6v147.7L2213.9,1427.4L2213.9,1427.4L2213.9,1427.4z M1662.1,1495.7h-112.5v-88.6h112.5
		C1713.7,1407.1,1722.6,1495.7,1662.1,1495.7z"/>
</g>
<path class="st3" d="M2313.8,1728.2c-0.4,1.9-1,3.8-1.4,5.7c-4.7,34.1-32.8,61.7-66.7,65.5c-42.5,4.8-80.7-25.8-85.5-68.1
	c-0.1-0.6-0.1-1.1-0.2-1.7c-3.6-38.9,25.6-76.6,64-82.9c38.4-6.4,77.5,19.1,87.1,56.7c1.3,5.2,1.8,10.7,2.7,16L2313.8,1728.2
	L2313.8,1728.2z M2298.6,1724.2c0.2-35.2-27.7-63.3-62.6-63.3c-33.2,0-61.2,28.8-61.1,63.1c0.1,33.1,28,60.6,61.3,60.6
	C2270.7,1784.5,2298.4,1757.6,2298.6,1724.2z"/>
<path class="st3" d="M1581.2,2126.8c-4.4-12.2-10.1-23.7-16.1-37.3c-2.3,4.1-3.7,6.2-4.7,8.4c-3,6.6-6,13.2-8.7,19.9
	c-2,5-5.4,7.3-10.7,6.9c-6.2-0.6-12.6,1.2-19.7-1.8l40.9-92c8.1,14.5,12.5,28.5,20.5,43.1l20.7-41.5l2.2,0.2
	c13.2,29.8,26.5,59.5,40.4,90.7c-3.9,0.5-6.9,1.3-9.7,1.3c-21.3-0.1-16.3,2.5-24.6-15.7c-2.7-5.9-5.5-11.8-9-19.7l-19.7,37.6
	L1581.2,2126.8L1581.2,2126.8z"/>
<path class="st3" d="M1107.8,2126.8c-5.5-11.1-10.9-22.4-16.4-33.5c-0.6-1-1.3-1.8-2.1-2.7c-1.3,2.3-2.5,3.7-3.2,5.5
	c-3,7.5-6.1,15.1-8.9,22.6c-1.6,4.1-4.2,6.1-8.5,5.9c-6.5-0.3-13.1,0.8-19.6-0.9c1-8.1,33.4-84.6,38.8-91.2
	c6.8,13.3,13.4,26.3,20.6,40.5c2.3-3.3,3.7-5,4.7-7c4.1-8,7.9-16.1,12-24.1c1.6-3,3.5-5.8,6.3-10.3c13.6,31.1,26.1,60.7,38.8,91.5
	c-8.9,2.4-16.7,1.6-24.3,1c-1.8-0.2-4.1-3-5-5.2c-2.8-6.4-5-13-7.7-19.4c-1-2.6-2.3-5.2-4.1-9.3c-8.7,12.1-12.5,25.3-19.8,36.6
	L1107.8,2126.8z"/>
<path class="st3" d="M1443.7,2126.8c-2.6-1.1-5.2-2.3-7.7-3.4c-17.8-8.1-27.2-22.3-28.6-41.4c-1.5-19.8,5.8-35.9,23.5-46.1
	c26.4-15.1,58.3,0.5,65.1,31.2c5.9,27-12.1,54.5-34.2,58.4c-0.8,0.3-1.6,0.7-2.3,1.3L1443.7,2126.8L1443.7,2126.8z M1432.8,2078.2
	c0.9,3.5,1.4,7.3,2.8,10.6c5.8,13.4,21.5,15.7,31.1,4.7c7.7-8.5,7.8-21.4,0.4-30.1c-9.7-11.7-26.6-9-32.1,5.2
	C1433.9,2071.5,1433.6,2074.7,1432.8,2078.2z"/>
<path class="st3" d="M970.4,2126.8c-1.6-0.6-3.1-1.4-4.8-1.9c-33.3-10.9-44.6-54.9-20.4-80.3c11.9-12.4,26.6-17.7,43.5-13
	c16.7,4.6,27.1,16.3,31.8,32.8c7.1,25.7-7.7,55-32.5,60.9c-0.7,0.2-1.3,1-2,1.5H970.4z M998.1,2077.9c0.1-11.4-9.7-21.9-20.3-22
	c-11.1,0-21.5,10.6-21.3,22c0.1,11.7,10,22.4,21,22.5C988.2,2100.7,998,2090,998.1,2077.9z"/>
<path class="st3" d="M855.5,2126.8c-1.2-0.6-2.5-1.2-3.8-1.7c-19-6.4-29.6-20-32.4-39.3c-2.8-19.8,3.6-36.6,20.3-48.6
	c7-5,15.1-7.1,23.8-7.1c7,0,8.8,1.7,9.1,8.6c0.3,4.4,0,8.7-0.2,13.1c0,1-0.8,2.1-1.1,3c-21.5,4.4-29.1,10.7-28.5,24
	c0.3,7.4,3,14.3,9.3,17.7c5.6,3,12.4,3.7,20,5.8c0.1,7.6,2.7,16.3-2.7,24.5H855.5z"/>
<path class="st3" d="M1328.8,2126.8c-2.3-1.1-4.5-2.2-6.9-3.3c-18.7-8.7-27.8-23.5-28.6-43.9c-0.8-19.8,7.2-34.7,24.5-44.6
	c6.5-3.8,14.1-5.6,21.7-5c5.8,0.4,7.1,1.7,7.5,7.4c0.3,5.7,0.1,11.4,0.1,17.6c-9.7,1.1-19.8,0.2-25.1,9c-2.8,4.7-4.4,10-4.5,15.4
	c-0.3,7.1,2.9,14.3,9.3,17.7c5.6,3,12.4,3.4,19.8,5.3c1.7,5.6,1,12.4,0.2,19.2c-0.3,1.9-2.5,3.6-3.8,5.3L1328.8,2126.8z"/>
<path class="st3" d="M1945.8,1746.7c-3-4-5-6.4-6.6-9c-14.1-23.1-30.3-44.6-47.5-65.4c-6.6-7.7-13.6-15.1-21.1-22
	c-11-10.4-20.7-21.9-29-34.5c-22.5-34.6-48.8-66.2-77.4-96.1c-10.5-11.1-20.4-23-29.6-35.2c-13.7-18-26-37-39.8-55
	c-20.7-27.2-41.7-54.2-63.3-80.7c-20.6-25.2-47.1-43.7-74.3-61c-16.4-10.4-33.8-19.3-52.3-25.4c-8.8-2.9-15.8-8.2-22.4-14.4
	c-40.5-38.7-81.4-76.8-125.1-112c-5.7-4.6-11.7-8.3-19.1-9.9c-6.5-1.5-12.9-3.6-19.4-4.8c-6.9-1.3-13.1-4.7-18.1-9.7
	c-22.2-21.8-44.8-43-66.7-65c-9-9-19.6-11.8-31.3-12.4c-3.2-0.2-6.4,0.5-9.2,1.8c-6,2.9-12.3,5.7-17.4,9.7
	c-50.1,39.4-101.4,77.5-148.3,120.9c-24.7,22.9-49.2,45.9-73.8,68.8c-4.9,4.5-9.9,9-15.7,12.4c-5.4,3.1-11.5,6-17.6,6.8
	c-10,1.3-17.1,6.2-23.3,13.6c-23.8,28.1-47.8,56.1-71.6,84.1c-65.7,77.1-132.2,153.3-201.4,227.2c-4.5,4.9-8.8,10.1-12.9,15.3
	c-17.9,23.1-35.6,46.6-53.8,69.5c-10.8,13.7-22.1,26.8-33.8,39.7c-17.1,18.9-34.9,37.2-52.3,55.9c-2.2,2.3-3.9,5-6.7,8.9
	c-2.8-4.2-4.4-6.4-5.7-8.7c-37.9-68-66-140.9-84-216.6c-17.1-72.3-25.1-145.7-22.4-220c6.9-191,69.7-361.4,191.2-509.1
	C661.5,671.7,810.6,577.8,989.7,532c44.2-11.3,89.1-18.3,134.5-22.2c42.2-3.7,84.6-4.1,126.9-1c181.6,13.5,343.4,76.2,483.2,193.8
	c86.2,72.5,156.8,157.8,208.5,258.3c42,81.6,69.8,167.8,84.2,258.4c5,31.2,6.8,62.8,8.8,94.3c1.9,33.6,1.8,67.3-0.3,100.8
	c-5,81.6-17.1,161.9-44.9,239.3c-10.2,28.4-22.7,55.9-37.6,82.1C1951,1738.9,1948.9,1741.9,1945.8,1746.7z M1522.6,883.2
	c-6.6-2.4-12.7-1.8-18.6-2.1c-5.5-0.3-9,2.4-12.3,6.8c-4.4,6-9.6,11.6-15.2,16.4c-3.6,3-8.7,4.6-13.4,5.7c-6.6,1.6-8.2,0.1-9.2-6.6
	c-0.5-3.5-0.9-7-1.5-10.4c-1.4-7.4-5.5-12.8-12.7-15.2c-7.5-2.6-15.3-4-23.1-2.3c-26.2,6.1-47.1,19.3-58.2,44.9
	c-2.9,6.6-5.6,13.4-8.4,20c-3.9,9.4-10.3,17.7-18.4,23.8c-2.2,1.9-4.6,3.5-7.1,4.9c-1.9,0.9-5,1.7-6.2,0.7c-1.3-1.1-1.4-4.2-1.1-6.3
	c0.4-2.5,1.3-5,2.4-7.4c6.8-15.7,13.6-31.3,20.4-47c2.1-4.8,4.6-9.4,6.6-14.2c3.4-8.1,1.5-12.4-6.8-15.6c-8.6-3.3-17.1-3-25.2,1.4
	c-5.3,2.9-10.4,6.4-15.5,9.6c-1.8,1.1-3.9,1.9-5.7,2.8c-0.6-0.6-1.1-1.2-1.6-1.9c-5.7-12.5-11.1-15.9-24.5-12.7
	c-7.1,1.7-13.8,5.5-20.7,8.6c-3.2,1.5-6.2,3.5-10.9,6.1c1.1-5.4,1.8-8.6,2.7-12.8c-5.9-0.2-11.3-0.3-16.7-0.6
	c-5.4-0.3-8.7,1.9-11.1,6.5c-5.2,9.7-11.3,19-16.1,28.9c-7.9,16.1-19,29.8-30.7,43c-3.6,3.7-7.8,6.8-12.5,9
	c-4.5,2.2-7.5-0.5-6.4-5.5c1-3.7,2.3-7.1,4-10.5c9.7-20.7,19.7-41.3,29.4-62c1.3-2.8,2.1-5.7,3.3-9c-10.2-4.4-21.5-5.7-32.5-3.9
	c-15.6,2.3-29.1,9.5-41.9,18.2c-5,3.4-10,7-15.3,9.9c-4.2,2.2-9,7.5-13.1,4.2c-5.1-4.1,0.3-9.5,1.9-14.1c1.4-4.1,3.7-7.8,5.1-11.9
	c1.9-5.8-0.4-8.7-6.4-7c-5,1.5-9.7,3.7-13.8,6.8c-5.4,3.9-10,8.8-15.1,13.1c-1,1-2.6,1.3-5.2,2.6c1.9-6.4,3.4-11.1,5.1-17
	c-8.2-1.2-16.5-1.4-24.8-0.4c-2.3,0.3-4.7,3-6.3,5.2s-2.3,5.3-3.7,7.8c-8.4,16.4-16.7,33.1-25.6,49.3c-5.7,10.4-15,17.6-25.6,22.9
	c-6,3-9.7,1-9.7-5.7c0.1-3.6,1.5-7.3,3-10.6c9.9-20.3,20.1-40.5,30.1-60.7c1.3-2.7,2.4-5.6,3.9-9c-17.4-7.5-33.9-9.4-50.7-2.5
	c-39.3,16.2-66,44.3-78.8,85c-5.2,16.4,1.3,26.1,18.3,27.4c2.3,0.1,4.6,0,7-0.3c9.7-0.9,17.4-6,24.9-11.6c3.4-2.4,6.8-4.8,11.1-7.7
	c0.8,3,1.3,4.6,1.6,6.3c1.6,9,3,10.4,11.6,12.8c9,2.4,17.2,0.7,25.1-3.6c5.4-3,10.9-5.7,17-9c-0.7,4.5-1.3,7.8-2,12.4
	c7.9,0,14.8-0.2,21.7,0c4.7,0.1,7.7-1.8,9.3-6.2c1.3-3.5,2.7-7,4.2-10.5c4.8-11.5,9.3-23.1,14.4-34.5c4.8-10.5,11.7-19.7,20.3-28.3
	c1,1,1.8,2.2,2.6,3.3c6.2,11.8,6.2,11.8,19.4,10.4c2-0.2,4.2,0.2,7.8,0.4c-2.9,4-4.7,6.5-6.6,9c-6.6,8.9-12.4,18.3-15.2,29.1
	c-2,7.7-2.4,15.5,1.3,22.9c2.4,4.8,5.9,7.2,11.7,7.5c12.8,0.6,24-2.3,33.4-11.6c3.4-3.3,7-6.9,12.7-6.9c0.5,2.6,0.9,4.9,1.4,7.1
	c2.2,8.8,5.6,11.3,14.7,11.5c9.4,0.3,17.6-3.3,25.2-8.2c3.1-2,6.1-4.1,10.2-6.8l-1.3,13.5c6.3,0.2,12-0.1,17.6,0.6
	c7.6,1,11.7-2.2,14.8-9c6-13.5,12.2-27,19.2-39.9c5.5-10.2,12.3-19.7,18.9-29.1c4.3-6.3,10.5-9.4,18.1-9.8c3,5.4,1,9.7-1,13.8
	c-9.7,20.1-19.7,40-29.4,60.1c-1.6,3.2-2.5,6.7-4.2,11c8.4,0.5,15.2,1,22.1,1.3c8.9,0.3,10.4-0.6,13.7-8.9
	c4.3-10.2,8.4-20.4,12.4-30.5c5.3-13.2,12-25.8,21.3-36.7c3-3.4,6.8-6.2,11-8c4.1-1.9,7.7,1.2,7.2,5.7c-0.4,2.6-1.2,5-2.3,7.4
	c-4.6,10.6-9.6,21.1-13.8,31.9c-3,7.2-5.2,14.7-7,22.4c-3.1,14.6,1.1,19.9,16.2,20.7c4.5,0.3,9.6,0.2,13.7-1.4
	c7.5-2.9,14.5-6.9,21.7-10.6c2.7-1.4,5-3.4,7.8-5.2c1.8,2.8,3,4.8,4.3,6.6c7.1,9.7,18,19.8,35.9,14.1c5-1.6,10.1-3,14.6-5.4
	c19.8-10.1,34.3-25.5,44.6-45c1.7-3,3-6.4,5-9.1c5.5-7.9,13.3-11.3,24.1-11.7c-1.5,3.9-2.3,6.5-3.4,9.1c-4,9.9-8.2,19.8-12,29.8
	c-1.7,4.4-3,8.8-3.9,13.3c-1.4,7,0.9,11.1,7.3,14c9.8,4.5,19.8,4.4,29.2-0.8c5.8-3.2,11.3-7,17-10.5c1.8-0.9,3.7-1.7,5.6-2.3
	c0.4,2.4,0.7,4.2,1.1,5.8c1.8,7,5.8,10.3,13.1,10.2c3.5-0.2,6.9-0.9,10.1-2.2c7.4-2.6,14.5-5.7,21.8-8.6c2.5-1,5.2-1.7,8.4-2.9
	c-1,3.7-1.7,6.4-2.9,10.4c8,0.1,15.1,0.2,22.4,0.2c9.6,0,9.6-0.2,13.5-9c6.4-14.3,12.9-28.5,19.9-42.5c6.3-12.4,16-21.9,27.6-29.6
	c1.7-1,4.7-1.5,6.4-0.7c2.8,1.3,1,3.9,0.3,6.1c-6.3,15.9-12.6,31.8-18.7,47.8c-1.7,4.3-3,8.8-3.7,13.3c-1.6,11.3,1.8,15.4,13.1,16.9
	c1.5,0.2,2.9,0.3,4.4,0.3c9,0.4,17.1-2.6,24.8-6.9c5.2-2.9,10.5-5.8,16-8.9c0.5,1.6,1.1,2.3,1,3.1c-0.7,9.9,4.8,15.5,13.1,19.6
	c19,9.3,36.5,7.2,52.6-6.3c11.6-9.7,19.3-22.3,26.4-35.3c0.4-0.8,0.1-2.1,0.1-3c-10.5-2.8-17.7,0.2-22.9,9.6
	c-3,5.5-7.6,10.3-11.8,15c-4.3,4.9-10.4,7.7-17,7.7c-6.2,0.1-9.7-2.5-9.7-8.5c0-5.7,0.3-11.9,2.3-17c8.9-21.4,18.6-42.5,27.9-63.7
	c1.9-4.4,4.9-6,9.7-5.3c4,0.6,8.1,0.8,12.1,1.1s6.8-1.1,7.7-5.2c0.6-2.7,1-5.5,1.7-9.5h-20.4l16.6-44.2c-5.7-3.5-11.4-1.4-16.7-2
	c-5.6-0.7-9,1.6-11.5,7c-4.8,10.5-10.3,20.8-15.5,31.2c-3.8,7.7-4.3,7.7-12.7,7.2c-2.9-0.1-5.7,0-8.6,0.3c-3.3,0.3-5.5,2.1-5.7,5.5
	c-0.2,3.7,2.2,5,5.4,5.6c3.6,0.7,7,1.7,11.9,2.8c-11.2,21.2-18.4,43-33.5,60.2c-4.4,4.9-10,8.7-15.5,12.5c-3.1,2.2-7.2,5.7-11,2.2
	c-3.6-3.3,0.2-7,1.7-10.2c7.4-15.7,15.2-31.2,22.3-47.2c2.7-6.1,4.3-12.5,4.9-19.1c0.6-8.1-3.5-12-11.5-13.7
	c-7.1-1.6-14.6-0.3-20.9,3.7c-7.7,4.5-15.3,9.2-23.7,14.3c0.6-4.7,1-8.6,1.6-12.2c-1-0.7-1.5-1.3-1.9-1.3c-4.4-0.4-8.7-0.8-13-1.1
	c-10-0.9-11.9,0.3-16.2,9.2c-5.5,11.5-10.8,23.1-16.8,34.4c-8.4,16-20.9,29.6-36.3,39.2c-2.5,1.6-5.3,2.6-9.6,4.6
	c0.4-7.5,2.4-14.8,5.8-21.5c8.9-18.3,17.8-36.5,26.5-54.8c1.3-2.7,2-5.7,3.4-9.7c-6.6-0.4-12-0.8-17.4-1.1
	c-11.7-0.7-12.4-0.2-17,10.3c-6.5,14.9-13,29.8-19.8,44.5c-5.9,12.7-15.7,23.2-28,30c-2.5,1.5-5.5,2.2-8.5,3.3
	c-2.3-6.4,0.2-10.8,2.1-15.2c9-20.7,18-41.5,27.1-62.2C1520.2,889.7,1521.1,886.7,1522.6,883.2L1522.6,883.2z M847.6,811.6
	c-8.5-0.5-8.5-0.6-15.1,3c-27.1,14.5-47.5,35.9-62,62.9c-5.7,10.7-10.7,21.8-15.7,33c-11.1,24.9-21.9,49.9-33.2,74.7
	c-9.7,21.5-23.4,40.9-40.5,57.2c-7.7,7.5-17,13.2-27.1,16.9c-21.4,7.7-42.3,4.9-62.6-4c-17.1-7.5-20.3-17.6-11.1-34
	c3.2-5.8,6.3-11.7,9.2-17.8c2.6-5.4,1-10.2-2.9-14.4c-9-9.7-25.5-9.3-33.9,1c-6.7,8.2-10.4,17.5-9,28.2c0.8,6.4,2,12.6,3.6,18.7
	c5.8,21.6,19.9,34.9,41.5,40.2c22.3,5.4,45,6.3,67.3,1c72.3-16.8,117-62.5,137-133.2c2.3-8.2,2.3-8.5,10.9-9.8
	c1.5-0.3,2.9-0.3,4.4-0.5c30.5-4.2,58.3-14.4,82.3-34.4c21.8-18,31.7-40.6,29.8-68.8c-1.1-16.9-6.8-31.5-18-44.1
	c-17.3-19.3-38.7-32-63.7-38.9c-42.5-11.6-84.8-10.2-127,1.7c-50.8,14.4-91.6,42.5-120.5,87.2c-13.3,20.7-17.7,43.3-15.1,67.3
	c0.8,7.2,3,14.2,6.4,20.5c9.9,18.1,25.1,30.1,45.1,35.8c28.5,7.9,54.7,1.6,79-13.4c12.7-7.8,18.1-21,18.2-35.7
	c0.2-16.4-7.6-21.9-23.5-17.8c-10.7,2.8-13.8,7-12.7,18.2c0.5,5.5,1.8,10.9,2.8,16.3c0.7,3.8-0.3,7-3.8,9c-7.2,3.9-14.9,7-23.2,5.1
	c-7.7-1.7-15.1-3.9-22.4-6.7c-9.8-3.7-16.4-11.1-18.9-21.3c-4.9-20.8-5-41.7,4.2-61.3c19.4-41.2,49.6-71.2,94.1-84.6
	c12.3-3.6,24.8-5.9,37.5-7c27.6-2.8,55.4,1.7,80.7,13.1c24.9,11.1,37.1,31.5,36.6,58.1c-0.6,35-20.1,62.9-54.5,78.1
	c-5.4,2.3-11.3,4.1-18.4,1c5.7-17.6,11.4-34.8,17.1-52.1C825.7,842.1,836.5,827,847.6,811.6z"/>
<path class="st3" d="M235.2,1917.8c4-0.3,6.3-0.6,8.5-0.6c239,0,478,0,716.9,0H2144c5.2,0,10.4,0.2,15.7,0.1
	c4.4-0.1,6.3,2.1,6.1,6.4s0.1,8.7-0.1,13.1c-0.2,5.6-1,6.3-6.8,6.6c-2.9,0.2-5.8,0.1-8.7,0.1H256.1c-5,0-9.8,0-14.8,0.1
	c-4.3,0.1-6.6-1.7-6.5-6.1C234.9,1931.1,235,1924.9,235.2,1917.8z"/>
<path class="st3" d="M1257.5,1193.8c1.7,2.2,3.7,4.4,5.3,6.6c21.1,27.7,39.1,57.5,56.8,87.4c15.8,26.6,31.9,53,51.8,77.1
	c9.7,11.7,16.2,26,23.7,39.3c6.4,11.3,12.4,23,18.4,34.5c2.1,4.1,3.8,8.4,5.8,12.6c1.3,2.9,2.2,6.2,4.3,8.5
	c8.4,9.5,11.3,21.4,15.4,32.8c2.3,6.6,1.7,12.4-3.6,17.5c-5.1,4.9-5.4,10.5-2.4,16.6c2,4.2,4.2,8.3,5.9,12.5
	c2.4,5.9,4.9,11.7,6.6,17.8c3.5,12.6,7.8,24.8,14.2,36.3c2.7,5.1,4.9,10.5,6.6,16c5.4,16.8,13.7,31.8,26.2,44.6
	c9.7,9.9,13,23.1,15.3,36.3c0.4,2.7-0.9,6.4-2.7,8.5c-3.1,3.6-4.7,7.3-4.2,11.8c1.6,13.8,3.4,27.5,10.2,40.1
	c5,9.4,10.4,19.2,12.5,29.5c2.3,10.7,4.2,22.5-2.3,34c-1.9-1.7-3.6-2.9-4.7-4.4c-7.6-9.6-14.3-19.6-17.9-31.6
	c-1.3-4.4-4.1-8.3-5.9-12.5c-12.2-27.5-24.4-55.1-36.6-82.6c-2.4-5.6-5.6-10.8-8-16.4c-3-6.9-6.3-13.7-8.3-20.9
	c-2.7-10.4-7.2-20.3-13.4-29c-9.5-13.2-16.4-27.8-23.5-42.5c-9.9-20.6-21.6-40.4-33.3-60c-3-5.1-8.8-9.2-14.2-12.3
	c-25.1-14-43.2-33.7-51.3-61.7c-2.7-9.5-4.8-19.1-7.5-28.5c-7.6-27.1-14.9-54.1-23-81c-2.6-8.6-3.1-16.4,2.3-23.9
	c7.3-10.2,6.9-21.1,3.6-32.4c-4.2-14.2-8.4-28.3-12.6-42.5l-11.1-37.3L1257.5,1193.8z"/>
<path class="st3" d="M1413.8,1300.7c1.4,1.5,2.8,2.9,4.1,4.4c20.1,21.2,40.4,42.4,60.3,63.9c15.4,16.6,30.5,33.4,45.2,50.5
	c4.7,5.5,8.8,11.5,12.2,17.9c2.2,4.1,3.4,8.6,3.7,13.2c1,14.4,5.7,26.5,17.9,35.1c2.5,1.9,4.8,4.3,6.7,6.8
	c10.9,13.7,23.8,25.2,37.2,36.5c11.5,9.7,23,19.5,33.8,30c5.7,5.6,10.2,12.5,14.7,19.2c7.2,10.8,14.1,21.8,21.1,32.9
	c5,7.8,9.8,15.7,14.6,23.7c5,8.4,10.2,16.8,15.1,25.3c3,5.2,5.6,10.7,8.4,16.1c1.2,2.3,2.3,4.7,3.6,6.9c4.6,8,9.5,15.8,14.1,23.8
	c6.7,11.8,13.3,23.8,19.9,35.7c2.9,5.2,5.6,10.4,8.4,15.7l-1.9,1.2c-2.3-2.8-4.6-5.6-6.7-8.4c-22.4-30.4-46.6-59.2-74.2-85
	c-4.2-3.9-7-9.3-10.9-13.5c-12.3-13.1-24.6-26.1-37.2-39c-4.9-5-11.4-8.3-18.4-9c-9.3-1.1-15.7-6.4-20.5-14.4
	c-3.2-5.1-6.9-10-11-14.4c-11.9-13.1-24.5-25.6-36.2-38.7c-5.3-5.7-9.8-12.2-13.6-19c-19.4-36.3-38.5-72.7-57.3-109.3
	c-12.2-23.7-23.4-47.9-35.2-71.7c-2.2-4.4-5.4-8.1-8.5-11.9c-5.7-6.9-7.3-15.4-10.7-23.1L1413.8,1300.7z"/>
<path class="st3" d="M808.7,1743.4c-0.8-7.3,2.2-13.5,5.4-19.5c6.4-12,12.9-24,19.5-35.8c5.9-10.7,9.2-22.6,9.7-34.8
	c0.3-7,2.6-14.2,5-20.9c3.3-9.2,7.8-18.1,11.5-27.1c1.8-4.5,3-9.4,4.7-13.9c1.8-4.9,4.1-9.6,6.2-14.3c2.7-6.1,5.5-12.1,8.4-18.1
	c1.7-3.6,1.4-6.6-1.5-9.5c-3.9-3.9-3.4-8.3-0.8-12.7c9.7-16.8,18.1-34.6,29.6-50.1c11.3-15.2,19.5-32.1,29.4-48
	c2.7-4.3,6.8-7.7,10.5-11.2c2.3-2.2,5.5-3.5,7.5-5.8c13.3-15.2,26.5-30.6,39.7-46c3-3.5,5.4-7.6,8.4-11.1c1.6-1.8,3.7-3.2,7-5.9
	c-1.6,13.4-3,24.8-8.2,35.4c-8,16.5-12,34.3-15.9,52.1c-1.4,6.8-1.6,13.7-0.4,20.5c2.8,18.5-1,35.2-11.9,51.1
	c-11,16-20.2,33.2-29.9,49.9c-6.4,11-14,20.4-25,27.2c-3.3,2.1-6.2,5.3-8.5,8.4c-7,9.2-13.6,18.8-20.5,28.1
	c-3,4.3-6.4,8.3-10.1,11.9c-9.8,9.5-16.4,21.1-20.2,34c-2.7,9.1-7.1,17.1-14.2,23.5c-12,10.8-20.7,24.1-29.8,37.2
	c-1.1,1.7-2.3,3.3-3.6,5C810.4,1743.1,809.6,1743.1,808.7,1743.4z"/>
<path class="st3" d="M1146.1,465.4c-2.4-1.3-5-2.4-7.2-3.8c-9.9-6-19.8-12.1-29.7-18.1c-7.7-4.7-8.5-4.6-15.1,1.3
	c-8.8,8-17.6,16-26.5,23.9c-2.1,1.8-4.4,3.5-7.7,6.3c0-3.4-0.3-5.2,0.1-7c2.8-12.7,5.7-25.4,8.6-38.1c2-8.9,2-8.9-6.2-13.7
	c-10.5-6.2-21.1-12.2-31.6-18.4c-2.3-1.4-4.6-3.1-8.3-5.7c3.4-1.1,5.1-2,6.9-2.2c13-1.3,25.9-2.4,39-3.6c9.4-0.8,9.7-1.1,11.7-10.6
	c2.3-11.4,4.5-22.7,6.8-34.1c0.3-1.7,1-3.1,1.8-6c1.7,2.5,3,3.9,3.7,5.6c5,11.1,10.1,22.2,15.1,33.2c3.9,8.5,3.9,8.4,12.9,7.7
	c12.7-1.2,25.4-2.3,38.1-3.3c1.4-0.1,2.8,0.3,5.3,0.7c-1.7,2.2-2.6,3.7-3.9,5c-8.6,8.2-17.3,16.3-26,24.5c-7.5,7-7.5,7-3.4,16.1
	c4.5,10,9,20,13.6,30.1c1.3,2.9,2.4,5.8,3.6,8.7L1146.1,465.4z"/>
<path class="st3" d="M414.1,771.4c1.7-2.3,3.2-4.6,5-6.9c7.3-9,14.7-17.9,22-26.9c4.8-5.9,4.9-6.3,0.8-12.9
	c-6.2-10.2-12.4-20.3-18.6-30.5c-1.4-2.3-2.4-4.9-4.6-9.4c4.5,1.5,7,2,9.1,3c11.4,5,22.7,10.3,34.1,15.3c6.7,3,7.1,2.9,11.7-2.7
	c7.5-8.9,14.8-17.9,22.2-26.8c1.8-2.2,3.7-4.2,7.2-8c1.2,9.7,0.9,17.3,0.6,25c-0.3,6.4-1.1,12.7-1.5,19.1c-0.4,9.2-0.3,9.5,8.2,12.9
	c10.4,4.2,21,8.4,31.4,12.6c3,1.3,5.9,3.2,10.4,5.7c-5.5,1.7-8.9,3.1-12.5,4.1c-11,2.7-22,5.1-33,7.8c-7.3,1.8-7.7,2.4-8.1,10.1
	c-0.6,11.9-1.1,23.8-1.7,35.6c-0.1,2.6-0.9,5.1-2.3,7.2c-1.6-2.2-3.3-4.3-4.7-6.5c-6.4-10-12.7-20.1-19.1-30.1
	c-4.4-6.8-4.4-6.8-12.6-5c-11.9,2.6-23.8,5.3-35.7,7.8c-2.5,0.5-5,0.8-7.6,1.1L414.1,771.4z"/>
<path class="st3" d="M1946,736.6c6,7.4,11.9,14.4,17.6,21.7c5.7,7.2,12.2,13.5,16.6,21.3c-0.3,0.5-0.8,1-1.1,1.7
	c-3.3-0.8-6.5-1.5-9.8-2.3c-12.3-3.3-24.6-6.6-36.9-9.8c-6.7-1.7-6.9-1.7-10.5,3.9c-6.8,10.4-13.3,21.1-20,31.5
	c-1.5,2.3-3.1,4.4-4.8,6.5l-1.7-0.6c-0.3-2.2-0.8-4.3-0.9-6.4c-0.6-12.2-1.1-24.3-1.7-36.5c-0.3-7.6-0.7-8.1-8.1-9.9
	c-10.7-2.6-21.4-5-32.1-7.7c-3.3-0.7-6.4-2.3-8.9-4.4c2.4-1.1,4.9-2.4,7.4-3.4c10.2-4.2,20.4-8.2,30.6-12.3c7.9-3.2,8-3.3,7.7-12.1
	c-0.4-12.4-1.1-24.9-1.6-37.3c-0.3-3.2,0.4-6.4,1.9-9.3c6.8,8.2,13.5,16.4,20.2,24.5c3,3.6,6.1,7,8.9,10.7c2.9,4,6,4.4,10.5,2.5
	c11.7-5,23.6-9.5,35.5-14.2c2.7-1.1,5.7-1.7,8.5-1.8c-3.2,8.3-8.6,15-13.1,22.1C1955.8,722.1,1951,729,1946,736.6z"/>
<path class="st3" d="M676,632.3c-1.6,0.5-3.1,1-4.7,1.3c-12.1,1.2-24.2,2.6-36.3,3.6c-11.7,1-11.8,0.9-14.4,12
	c-2.3,10.2-4.7,20.3-7.1,30.5c-0.6,2.4-1.6,4.8-3,9.1c-2.2-3.7-3.7-5.8-4.9-8.3c-4.7-10.3-9.2-20.6-13.9-30.9
	c-3.7-8.2-5.1-9-13.9-8.4c-11.3,0.6-22.5,1-33.8,1.6c-2.3,0.1-4.5,0-8.8,0c2.3-2.9,3.4-4.7,4.9-5.9c9.3-7.8,18.8-15.5,28.1-23.3
	c6.8-5.7,6.8-5.7,3.1-13.8c-4.6-10.4-9.2-20.6-13.8-30.9c-1.1-2.5-2.1-5.2-3.9-9.7c4,1.7,6.3,2.5,8.4,3.7
	c10.8,6.2,21.7,12.3,32.3,18.8c4.4,2.7,7.7,2.4,11.6-1c9.2-7.9,18.7-15.6,28.2-23.2c2.1-1.7,4.4-3.3,6.5-5l1.4,1
	c-0.4,2.8-0.8,5.6-1.5,8.3c-2.3,10.2-4.9,20.3-7.2,30.4c-2.4,10.4-2.4,10.4,6.4,16.1c9.7,6.3,19.6,12.4,29.3,18.6
	C671,628.2,672.9,629.9,676,632.3z"/>
<path class="st3" d="M981.9,492.9c-8.4-3.1-16.7-6.3-25.1-9.4c-5.4-2.1-10.8-4.2-16.2-6.2c-8.8-3.3-8.9-3.3-14.2,4.1
	c-6.7,9.1-13.3,18.3-20,27.4c-1.7,2.2-3.4,4.4-6.3,8c-0.6-3.9-1.1-5.7-1.1-7.6c-0.1-12.7-0.3-25.5,0-38.3c0.2-5.3-1.9-7.9-6.6-9.6
	c-11.7-4.3-23.3-8.8-34.9-13.3c-2.6-1-5.2-2.2-9.4-3.9c3.2-1.6,5-2.7,7-3.3c10.9-3.2,21.7-6.2,32.5-9.3c11.3-3.2,11.3-3.2,11.3-14.7
	c0-11,0-22,0-33.1c0-2.8,0.3-5.6,0.4-8.7c4-0.3,5,2.3,6.4,4.4c6.8,10.1,13.5,20.2,20.3,30.3c1.7,2.6,3.7,5,5.9,8l48.7-15.8
	c0.4,0.5,0.9,1,1.3,1.5c-3.9,7.5-9.6,13.8-14.4,20.7c-5,7.1-10,14.1-15.7,21.8c3.6,5,7,10,10.5,14.9c3.7,5.2,7.6,10.3,11.1,15.5
	c3.4,4.9,7.3,9.4,9.9,14.7L981.9,492.9z"/>
<path class="st3" d="M1676.9,455.2c-2,10.4-3.9,20.9-5.9,31.3c-0.6,3.4-1.1,6.9-2.1,10.2c-1.6,5.4,0.5,8.7,5,11.5
	c10.4,6.4,20.6,13,30.9,19.5c2.3,1.5,4.5,3.2,8.6,6.2c-5.4,1-8.6,1.7-11.8,2.1c-11.2,1.1-22.5,2.1-33.8,3.1c-7.5,0.8-8,1.2-9.7,8.6
	c-2.9,12.4-5.7,24.8-8.5,37.2c-0.5,2.2-1.4,4.2-2.7,8.2c-2.2-4.3-3.5-6.7-4.7-9.2c-4.7-10.3-9.3-20.5-14-30.9c-4-8.7-4-8.6-13.8-7.7
	c-12.1,1.2-24.2,2.3-36.4,3.4c-1.7,0.2-3.3,0-6.4,0c1.9-2.4,3-4,4.3-5.2c9.9-8.9,19.9-17.7,29.9-26.5c5.9-5.3,5.9-5.4,2.8-12.5
	c-4.7-10.6-9.6-21.1-14.3-31.7c-1.1-2.6-2.1-5.2-3.9-9.6c3.6,1.4,5.6,2,7.4,3c10.6,6,21.1,12.2,31.7,18.2c7.7,4.4,7.7,4.4,14.1-1.5
	c8.3-7.7,16.4-15.5,24.8-23.1c2.1-1.9,4.3-3.7,6.4-5.5L1676.9,455.2z"/>
<path class="st3" d="M1719.6,633.8c2.3-1.6,4.6-3.1,7-4.5c10.3-6,20.5-11.9,30.7-17.9c5.9-3.5,6.1-3.7,4.6-10.4
	c-3-13.6-6.1-27.1-9.1-40.6c-0.3-1.3-0.4-2.7-0.9-5.8c3,1.8,5,2.7,6.5,4c9.7,7.8,19.3,15.7,29,23.6c6.6,5.4,6.7,5.4,14.3,1
	c9.7-5.7,19.5-11.3,29.3-17c2.4-1.4,5-2.6,8.9-4.5c-0.9,3.3-1.1,5.2-1.8,6.9c-4.5,10.4-9.1,20.6-13.7,31c-5.8,12.8-5,10.8,4.4,19.3
	c7.7,7,15.7,13.8,23.4,20.8c2.1,1.8,3.9,3.9,7.5,7.4c-6.4,0-10.5,0.3-14.6-0.1c-9.6-0.8-19-1.9-28.5-2.7c-9.7-0.8-9.9-0.6-13.8,8
	c-4.7,10.3-9.2,20.6-13.9,30.9c-1,2.3-2.3,4.5-4.4,8.4c-1.4-3.7-2.4-5.9-3-8.2c-3-11.7-5.9-23.6-8.5-35.4c-1.1-5-3.3-7.4-8.6-7.7
	c-11.8-0.8-23.7-2-35.5-3.1c-3-0.3-5.9-0.9-8.9-1.3L1719.6,633.8z"/>
<path class="st3" d="M2118.1,1782.4l-32.6-4.4c-3.1-0.4-6.3-1-9.5-1.3c-9-1-9-1-12.9,7.6c-4.5,10-9,20.1-13.7,30.1
	c-1.1,2.5-2.5,5-4.8,9.3c-1.2-4.1-2.1-6.2-2.4-8.3c-2.2-10.8-4.2-21.6-6.3-32.4c-2-10.2-2.1-10.1-11.9-11.3
	c-12.1-1.6-24.1-3.3-36.1-5c-1.8-0.3-3.7-1-7-2.1c3.7-2.3,5.9-4,8.4-5.4c9.5-5.6,19.1-11.1,28.5-16.6c8.6-5,8.7-5,6.9-15.1
	c-1.8-10.5-3.8-21.1-5.6-31.7c-0.5-3.3-0.5-6.7-0.9-11.7c3,2.3,5,3.5,6.4,5c8.9,8.4,17.6,16.9,26.4,25.2c5.7,5.4,6,5.4,12.8,1.9
	c10.3-5.3,20.4-10.8,30.8-16.2c3-1.6,6.1-2.7,9.2-4l1.4,1.3c-1.4,3.3-2.7,6.7-4.4,9.9c-4.9,9.6-9.9,19-14.9,28.5
	c-3.6,6.9-3.6,7,2.1,12.6c8.6,8.6,17.2,17.2,25.8,25.8c1.9,1.9,3.7,4.1,5.5,6.2L2118.1,1782.4z"/>
<path class="st3" d="M2167.6,1343.5c-0.9,10.4-1.7,20.7-2.8,31.1c-2.1,19.1-2.2,19.1,15.7,25.9c9.7,3.7,19.5,7.5,29.1,11.3
	c0.4,0.2,0.7,0.9,1.7,2.1c-2.2,1-4.5,2-6.8,2.8c-11.9,3.5-23.8,7.1-35.9,10.3c-5.6,1.5-8.4,4.4-8.8,10.2c-0.8,10.7-1.8,21.3-2.9,32
	c-0.3,3.6-1.1,7.1-2,12.6c-2.5-3.2-4.1-4.9-5.2-6.7c-6-10.2-12-20.5-18-30.7c-4.3-7.3-4.4-7.3-12.4-5.4c-11.8,2.8-23.7,5.7-35.5,8.4
	c-2.8,0.6-5.6,1-9.8,1.7c1.6-2.7,2.3-4.4,3.4-5.8c8.8-10.1,17.6-20,26.5-30c5.8-6.6,5.8-6.7,1.6-14.2c-5.7-9.8-11.3-19.6-16.9-29.4
	c-1.4-2.4-2.7-5-4.9-9.1c3.6,0.8,5.7,1,7.7,1.7c11.3,4.4,22.6,9,33.9,13.4c7.3,2.9,7.4,2.9,12.5-3c7.3-8.3,14.5-16.5,21.8-24.8
	c1.8-2,3.9-3.7,5.9-5.7L2167.6,1343.5z"/>
<path class="st3" d="M313.3,1266.7l-46.5-24.2c-13.1,12.3-25.1,25.1-37.7,37.1l-2-1c0.9-7.2,1.7-14.5,2.6-21.8
	c1-7.7,1.9-15.5,3.2-23.2c0.8-4.8-1-7.6-5.1-9.7c-10.4-5.2-20.5-10.7-30.8-16.1c-2.3-1.2-4.6-2.9-6.9-4.3l0.5-2.1
	c7.6-1.2,15.1-2.5,22.6-3.7c5.4-0.8,10.9-1.4,16.4-2.1c8.4-1,9.1-1.8,10.3-9.9c1.6-11.1,3-22.4,4.8-33.5c0.6-3.9,1.7-7.7,3-13.6
	c2.4,3.3,3.9,4.9,4.9,6.7c6,11.9,11.8,23.8,17.8,35.8c4,8,4.1,8,12.5,6.4c12.3-2.3,24.5-4.5,36.7-6.7c1.9-0.3,4-0.3,7.6-0.7
	c-2,2.8-3,4.6-4.5,6.1c-8.4,8.4-16.8,16.9-25.1,25.2c-8,8-8,8-2.2,18.2c5.3,9.3,10.8,18.5,16.1,27.8c1.4,2.4,2.5,5,3.7,7.4
	L313.3,1266.7z"/>
<path class="st3" d="M178.4,1394.9l47.7-16.4c-0.7-17.2-1.4-33.9-2.2-52.6c3,2.4,5,3.6,6.3,5.1c7.8,9.3,15.7,18.5,23.2,28.1
	c3.9,5,7.8,6.6,14.2,4.3c11.4-4.3,23.1-7.7,34.6-11.4c2.1-0.7,4.3-1,8.6-1.9l-30.7,43.9l32,42.3l-1,1.7c-2.3-0.3-4.8-0.9-7-1.5
	c-12.1-3.9-24.2-7.9-36.3-11.8c-8.1-2.6-8.6-2.4-13.7,4.5c-6.9,9.3-13.6,18.8-20.4,28.1c-1.5,2-3.2,3.7-6.3,7.3
	c-0.3-4.9-0.8-7.7-0.8-10.4c-0.1-10.4-0.1-20.9-0.2-31.2c-0.1-11.3-0.1-11.4-11.3-14.6c-9.1-2.6-18.4-5.2-27.5-7.9
	c-3-0.9-5.9-2.1-8.9-3.1L178.4,1394.9z"/>
<path class="st3" d="M1409.6,404.9c3,0.7,5.9,1.1,8.8,2c11.6,3.7,23.1,7.6,34.7,11.3c7,2.2,7.2,2.1,11.4-4
	c6.2-9.1,12.3-18.3,18.4-27.4c1.6-2.3,3.4-4.5,6-8.1c0.8,3.2,1.5,4.9,1.5,6.6c0.2,10.4,0.1,20.9,0.2,31.3
	c0.1,12.1-1.5,11.1,10.6,15.1c10.2,3.4,20.3,6.8,30.5,10.3c2.6,0.9,5.1,2.1,9.3,3.8c-3.4,1.7-5.2,2.9-7.1,3.7
	c-10.9,3.9-21.8,7.7-32.7,11.7c-7.2,2.6-7.5,3-7.6,10.6c-0.2,12.4-0.1,24.9-0.2,37.4c0,2.8-0.3,5.7-0.5,10.4
	c-2.8-2.9-4.4-4.2-5.7-5.9c-7.4-10-14.6-20.2-22-30.2c-4.9-6.7-5-6.7-12.9-3.7c-11.7,4.4-23.2,8.9-35,13.2c-2.7,1-5.7,1.5-8.5,1.3
	c9.3-16,20.6-30.2,30.7-45.2c-9.9-15-21.7-27.7-31-42.2L1409.6,404.9z"/>
<path class="st3" d="M2156.3,1250c1.2,17.2,2.5,34.1,3.8,52.7c-2.7-2.3-4.5-3.5-5.8-5c-8.2-9.7-16.3-19.6-24.5-29.4
	c-4.7-5.7-5-5.7-11.7-2.8c-11.9,5.3-23.8,10.7-35.6,16c-2.5,1.1-5.1,2-7.7,3c-0.4-0.5-0.9-1-1.3-1.5c9.4-15.1,18.8-30.1,28.6-45.9
	c-11.7-13.7-23.8-26.9-35.3-40.5l1.7-2c4.4,1,8.8,1.9,13.2,2.9c9.6,2.3,19.1,4.6,28.7,6.9s9.7,2.3,14.8-6.6
	c5.4-9.2,10.8-18.5,16.2-27.8c1.4-2.4,3-4.7,4.5-7.1l1.9,0.3c0.7,5.5,1.5,11.1,2,16.5c0.8,8.6,1.5,17.3,2.2,25.9
	c0.7,7.7,1.3,8.6,9,10.4c10.4,2.5,20.9,4.9,31.2,7.4c3.2,0.8,6.4,1.8,9.7,2.8l0.2,1.9L2156.3,1250z"/>
<path class="st3" d="M2113.7,1654.2c-1.2-2.5-2.5-5-3.6-7.6c-4.1-9.9-8-19.9-12-29.8c-3.1-7.6-3.1-7.7-11.6-7
	c-11,0.8-21.9,1.9-32.9,2.9c-3.5,0.4-7,0.2-10.4-0.9c1.8-2.3,3.8-4.5,5.9-6.6c9-8.2,18.3-16.2,27.3-24.3c5.5-4.9,5.5-5.1,2.9-11.9
	c-4.5-11.6-9.2-23.1-13.7-34.7c-0.8-2-1.1-4.1-2.1-7.9c3.8,2,6.1,3,8.2,4.4c9.8,6.1,19.7,12.4,29.5,18.4c6.3,3.8,6.5,3.8,12.2-0.7
	c8.1-6.5,16.1-13.3,24.2-19.8c3.1-2.5,6.4-4.7,11.3-8.3c-0.6,4.5-0.7,7.2-1.3,9.8c-2.5,11.1-4.9,22.1-7.7,33c-1.6,5.7,0,9.2,5,12.4
	c9.6,6,18.9,12.4,28.3,18.8c2.7,1.7,5,4,6.7,6.8c-4.6,0.7-9.2,1.6-13.8,2c-9.5,1-19.1,1.6-28.5,2.6c-9.2,1-9.2,1.2-11.4,10
	c-2.8,11.2-5.5,22.5-8.3,33.8c-0.5,1.6-1,3.1-1.7,4.7L2113.7,1654.2z"/>
<path class="st3" d="M406.3,949.3c-10.4-11.1-19.8-21-29.1-30.8c-6.9-7.2-6.9-7.2-16.2-3.2c-11,4.6-21.8,9.4-32.7,13.9
	c-2.7,1.2-5.7,1.6-8.7,1l25.2-44.2L309,847.2c3.7,0,5.3-0.3,6.8,0c12,2.2,23.9,4.4,35.8,6.6c8.4,1.6,8.7,1.5,13.1-6.1
	c5.7-9.7,11.4-19.6,17.1-29.2c1.4-2.4,3-4.7,5.5-8.4c1,3.4,1.7,5.1,1.9,7c1.7,12.6,3.5,25.2,5.2,37.9c1,7.3,1.6,8.1,8.9,9.6
	c10.8,2.2,21.7,4,32.5,6.1c3.6,0.7,7.1,1.5,12.9,2.7c-3.5,2.3-5.1,3.7-7,4.5c-11.1,5-22.2,10-33.2,15.1c-7.3,3.3-7.7,4.1-6.6,11.9
	c1.7,12.6,3.5,25.2,5.1,37.9C407.1,944.2,406.5,946,406.3,949.3z"/>
<path class="st3" d="M1291.7,337.1c1.9,8.1,3.8,16.2,5.7,24.3c1.5,6.2,2.8,12.4,4.3,18.6c1.9,7.7,1.9,7.7,9.6,8.4
	c12.1,1.1,24.2,2.3,36.3,3.5c2.3,0.3,4.4,0.9,8.4,1.6c-2.9,2.2-4.4,3.7-6.1,4.6c-11.7,6.5-23.3,12.9-35,19.3
	c-5.9,3.3-6.1,3.7-4.7,10.3c2.4,11.1,5,22,7.6,33c0.8,3.6,1.4,7.2,2.3,12.1c-9-4.3-14.1-11.2-20.3-16.6
	c-6.2-5.4-12.3-11.3-18.8-17.4c-15.8,9-30.5,19.3-45.8,28.2l-1.3-1.2c0.5-2.1,1.1-4.1,1.9-6.1c5.1-11.7,10.3-23.3,15.6-34.9
	c4.1-9.1,4.2-9.1-3.7-15.9c-7.8-6.8-15.7-13.8-23.5-20.6c-2.3-2.1-5-3.9-7.5-6c3.4-4.4,6.7-3.4,9.7-3.1c11,1,21.9,1.9,32.9,3
	c8.4,0.8,8.9,0.7,12.4-7.2c4.7-10.3,9.2-20.6,13.9-30.9c1.1-2.5,2.6-5,3.9-7.4L1291.7,337.1z"/>
<path class="st3" d="M204.7,1591.7c2.3-1.5,4.5-3,7-4.4c10.3-6,20.6-11.9,30.9-17.8c6.1-3.6,6.4-4.2,5-11.1
	c-2.3-12.5-4.8-25.1-7.1-37.6c-0.3-1.4-0.3-2.8-0.4-5.6c2.8,1.7,4.8,2.7,6.4,4.1c7.7,6.6,15.2,13.4,23,20c11.4,9.8,8.8,9.2,21.6,3
	c8.9-4.4,17.6-8.8,26.5-13.1c2.7-1.3,5.7-2.2,10.4-4.1c-1.8,4.6-2.7,7.2-3.8,9.7c-5.2,10.6-10.6,21.2-15.8,31.9
	c-3.2,6.6-3.1,6.9,2.6,11.7c8.9,7.5,17.9,14.7,26.8,22.1c2.2,1.7,4.2,3.7,6.8,6.1c-4.1,2.6-7.5,1.3-10.7,1c-10.7-0.9-21.4-1.7-32-3
	c-7.1-0.9-11.3,1.7-14.3,8.3c-4.8,10.5-10.2,20.8-15.4,31.2c-1,2.2-2.5,4.1-3.8,6.1l-1.9-0.3c-1.9-9.7-3.8-19.6-5.7-29.4
	c-0.9-4.5-1.5-9.1-2.4-13.7c-1.7-7.9-2.2-8.3-10.2-9c-13.3-1.1-26.5-2.3-39.9-3.6c-0.8-0.2-1.7-0.3-2.4-0.6
	C205.3,1592.9,205.1,1592.3,204.7,1591.7z"/>
<path class="st3" d="M406.1,1762.9c-3,0.6-5.9,1.4-9,1.8c-11.7,1.7-23.5,3.5-35.3,5c-4.8,0.6-7,2.8-7.8,7.7c-2,12-4.4,23.9-6.6,35.9
	c-0.5,2.5-1.2,5-1.9,7.8c-4.1-0.9-5-4.2-6.3-6.8c-5.3-10.3-10.4-20.7-15.7-31.1c-4-7.7-4-7.7-12.8-6.8c-12.1,1.2-24.3,2.3-36.4,3.5
	c-1,0.1-2.1-0.2-4.4-0.4c1.7-2.2,2.6-3.8,4-5c9-8.1,18.3-16.1,27.4-24.2c5.3-4.7,5.5-5.4,2.3-11.8c-5.4-10.9-11-21.8-16.4-32.6
	c-1.4-2.9-2.3-6-2.5-9.1c16.5,6.3,31.2,15.4,47.8,23.1c6.2-5.7,12.4-11.7,18.8-17.4c6.4-5.7,12-12.2,20.8-18.3
	c-1,6.9-1.7,11.7-2.6,16.4c-1.8,10.3-3.4,20.6-5.7,30.8c-1.1,5,0.3,7.4,4.7,9.6c10.1,5,20.1,10.4,30,15.7c2.7,1.5,5.2,3.2,7.7,4.8
	L406.1,1762.9z"/>
<path class="st3" d="M2156.2,1035.4c-3.7,3-7.5,6.2-11.3,9.2c-6.6,5.1-13.3,10.3-19.9,15.4c-7,5.4-7,5.5-4.4,13.7
	c3.7,11.6,7.7,23.1,11.4,34.6c1,2.8,1.3,5.7,1,8.6c-15.3-9.1-28.5-20.7-43.4-31l-41.9,30.7l-1.7-1.2c1.3-8.4,5-16.2,7.4-24.3
	c2.5-8.3,5.4-16.4,8.4-25.6l-41.5-30.5l0.7-1.8c2.1-0.4,4.3-0.7,6.4-0.9c12.4-0.1,24.9,0,37.3-0.1c7.3-0.1,7.4-0.1,9.8-7.1
	c4.7-13.7,9.2-27.3,14.5-43c1.7,3.3,3,5,3.6,6.9c3.5,11.7,6.8,23.3,10.2,35c2.3,8.2,2.4,8.3,10.6,8.3c11,0.1,22,0,33,0.1
	c3,0,6.1,0.4,9.1,0.7C2155.8,1033.8,2156,1034.6,2156.2,1035.4z"/>
<path class="st3" d="M2003.2,814.4c1.4,2.3,2.9,4.7,4.2,7c5.3,10,10.8,19.8,15.7,30c2.3,4.8,5.1,6.3,10.3,5.2
	c11.9-2.4,23.9-4.4,35.8-6.5c3-0.5,6.1-0.9,11.2-1.6c-2.9,3.7-4.4,5.7-6,7.5c-8.3,9-16.6,17.8-24.9,26.7c-5,5.5-5.1,5.6-1.7,12
	c5.6,10.8,11.3,21.5,17,32.4c1,1.9,1.5,4.1,2.7,7.6c-3.6-1.2-5.7-1.8-7.6-2.7c-10.4-4.6-20.6-9.2-30.9-13.8
	c-9.8-4.4-9.9-4.4-17.1,3.2c-7.1,7.7-14.3,15.2-21.4,22.8c-1.9,2.1-3.7,4.4-5.6,6.6l-1.8-0.8c-0.3-1.7-0.9-3.5-0.7-5.1
	c1.7-13,3.5-25.8,5.2-38.7c1-6.9,0.6-7.7-5.8-10.7c-10.3-4.8-20.6-9.3-30.9-14c-2.8-1.3-5.3-3-9.7-5.4c4.2-1.2,6.3-2,8.4-2.4
	c11.9-2.3,23.9-4.5,35.8-6.8c8.1-1.6,8.4-1.8,9.5-9.8c1.8-12.9,3.6-25.8,5.3-38.7c0.3-1.1,0.5-2.2,0.9-3.2L2003.2,814.4z"/>
<path class="st3" d="M304.5,971.8c1.5,3.9,2.4,5.9,3,8c3.5,12.3,6.8,24.5,10.3,36.8c2.2,7.7,2.6,8.1,10.9,8.2c11.1,0.1,22,0,33.1,0
	h8.6c0.7,4.2-2.3,5-4.3,6.3c-9.8,6.7-19.8,13.2-29.6,19.8c-6.1,4.1-6.2,4.5-3.9,11.4c3.8,11.8,7.8,23.7,11.7,35.4
	c0.7,2.1,1.1,4.4,2,7.8c-2.9-1.3-4.6-1.9-6.1-2.9c-10.6-7.6-21.2-15.2-31.8-22.8c-6.2-4.4-6.3-4.4-12.9-0.1
	c-8.7,5.7-17.4,11.6-26.1,17.2c-2.9,1.9-5.8,3.6-9.4,5.7c-1.3-4.4,0.3-7.5,1.3-10.5c3.2-9.6,6.6-19.1,9.9-28.7
	c3-8.4,2.9-8.4-3.8-13.7c-9.7-7.4-19.4-14.8-29-22.2c-2.1-1.7-4-3.7-7.5-6.9c4.4-0.3,6.6-0.8,8.8-0.7c12.2,0.5,24.3,1.2,36.5,1.7
	c8.2,0.3,8.2,0.3,11.2-7.6c4.3-11.1,8.5-22.2,12.8-33.2C301.2,978.4,302.5,976,304.5,971.8z"/>
<path class="st3" d="M681,527.6c2.4-1.4,4.8-2.9,7.3-4.1c10.6-5.4,21.2-10.6,31.8-16c6.5-3.3,6.6-3.7,5.4-10.8
	c-2.2-12.3-4.4-24.5-6.6-36.8c-0.4-2.4-0.6-4.9-1.1-9.3c3.4,2.9,5.4,4.4,7.1,6.1c7,7,13.9,13.9,21,20.9c10.1,10,7.5,9.3,19.6,3.4
	c9.4-4.6,18.7-9.3,28-13.9c2.6-1.3,5.2-2.3,8.8-3.8c0.1,7-4,11.3-6.1,16.4c-2.3,5.3-5.1,10.4-7.7,15.6c-2.6,5.2-5.1,10.4-8.1,16.4
	l36.6,35c-3.6,3-7,1.7-10.2,1.2c-9.5-1.3-18.9-2.9-28.4-4.4c-10.8-1.6-11-1.5-16,8.5c-4.8,9.6-9.6,19.2-14.4,28.8
	c-1.3,2.5-2.7,5-4.8,8.8c-1.3-2.9-2.4-4.4-2.8-6.1c-2.4-12.5-4.6-25.1-7-37.6c-1.6-8.5-1.8-8.8-10.4-10c-12.1-1.7-24.1-3.3-36.2-5
	c-1.9-0.3-3.7-0.9-5.7-1.3L681,527.6z"/>
<path class="st3" d="M619.1,1697.3c1.4-2.4,2.7-4.9,4.3-7.1c22.4-34.1,44.9-68.2,67.4-102.3c1-1.5,2.3-2.9,2.6-4.4
	c2.5-10.4,10-17.3,16.2-25.3c25.4-33.1,56.1-60.9,85.3-90.4c2.4-2.4,5.2-4.6,8.2-6.4c1.2-0.7,3.7-0.7,4.7,0.1c1,0.8,1.4,3.3,1,4.6
	c-1,2.7-2.3,5.3-3.8,7.7c-8.1,13.1-16.3,26-24.5,39c-1.6,2.4-3,5-4.8,7.2c-11.1,14.9-22.4,29.5-33.1,44.7
	c-8.7,12.6-19.6,23.8-32,32.8c-6.2,4.4-11.8,9.4-16.8,15c-23.1,26.8-45.9,53.9-68.7,80.7c-1.5,1.7-3,3.4-4.6,5.1L619.1,1697.3z"/>
<path class="st3" d="M2015.6,2123.2c-17.1-9.1-30.6-22.5-47.9-33.8c-0.3,4.3-0.8,7.2-0.8,10.2c-0.2,6.4-0.2,12.7-0.3,19.1
	c0,2.8-0.7,5.5-4.1,5.6c-6.9,0.3-13.7,1-21-1v-89.5c3.1,1.9,5.6,3.1,7.6,4.8c10.6,8.4,21.1,17.1,31.8,25.6c2.4,1.9,5,3.7,8.6,6.4
	c2.7-13.2-0.1-25.5,2.3-37.9h24.5C2016.9,2063.1,2016.5,2092.7,2015.6,2123.2z"/>
<path class="st3" d="M1636.8,1445.3c5.2-0.9,8.2,1.6,10.4,4.5c10.7,14.3,25.1,24.8,37.4,37.5c16.5,17.1,32,35.1,47.8,52.9
	c4.8,5.4,6.5,12.3,5.9,19.5c-0.7,7.7,1.8,14,6.2,20.2c11,15.7,21.5,31.6,32,47.5c3.2,4.8,5.7,10.1,7.2,15.7
	c-1.5-1.1-2.8-2.3-4.1-3.7c-17.5-19.4-34.9-38.8-52.4-58.2c-3.1-3.4-6.8-6.3-9.9-9.7c-10.3-11.3-20.4-22.8-30.5-34.3
	c-3.6-4.1-6.6-8.8-10.2-13c-4.4-5-7.2-10.5-6.7-17.3c0.8-9.7-2.6-18.2-8.3-25.9c-7-9.6-13.8-19.3-20.7-29.1
	C1639.7,1450.1,1638.4,1448,1636.8,1445.3z"/>
<path class="st3" d="M1681.8,2032.7c15.2-1,29.4-2,43.3,0.9c19.8,4.1,30.5,28.1,21.3,46.1c-4.1,8.1-10.7,12.9-19.7,14
	c-4.9,0.6-9.8,0.5-14.7,0.9c-5.7,0.3-6.6,1.1-6.7,6.7c-0.2,7.2-0.1,14.4-0.1,21.4c-7,3.1-13.5,1.8-19.8,1.7
	c-3.2-0.1-4.4-2.6-4.4-5.5c-0.1-5.2-0.1-10.4-0.1-15.7c0-19.4-0.1-38.8,0-58.2C1681.2,2041.3,1681.5,2037.6,1681.8,2032.7z
	 M1705.4,2063.1c0,1.7-0.1,3.2,0,4.6c0.6,7.1,2.8,8.7,9.5,6.8c1.7-0.4,3.2-1.2,4.7-2.2c4-3,4.9-8.7,2.4-13.4
	c-2.1-4-7.7-6.2-12.9-4.9C1703.6,2055.4,1705.9,2059.9,1705.4,2063.1z"/>
<path class="st3" d="M1890.6,2123.6c-7.4,2-15.1,1.2-22.8,0.5c-2.1-0.2-4.4-3.5-5.6-5.9c-3.8-7.5-7.2-15.1-10.9-22.7
	c-1-2.3-2.4-4.3-4.8-8.3c-4.3,8.9-8.6,15.8-11,23.3c-3.6,11.4-10.2,16.1-21.9,13.9c-3.5-0.6-7.1-0.6-12.2-1l44-90.3
	c1.2-0.1,1.5-0.1,1.7-0.1s0.7,0.1,0.8,0.3c13.6,27.5,27.2,54.9,40.7,82.4c0.9,1.8,1.6,3.7,2.2,5.7
	C1891.2,2121.9,1890.9,2122.5,1890.6,2123.6z"/>
<path class="st3" d="M2068.5,2032.3h23.4c3.5,0,5,2.3,6.3,5c2.8,5.7,5.7,11.4,8.6,17.1c1.1,2.3,2.5,4.4,4.3,7.6
	c1.6-2.2,3-3.5,3.7-5.1c2.6-5.7,5.2-11.6,7.5-17.5c2.1-5.3,5.7-7.7,11.3-7.4c5.9,0.3,11.9,0.6,19.1,0.9c-1.5,3.7-2.4,6.4-3.7,8.9
	c-6.1,12.8-11.9,25.8-18.5,38.3c-4.8,8.9-7.1,19-6.8,29.1c0.5,16.8,1.1,15.6-15.3,15.5c-8.3-0.1-9.5-0.6-8.7-8.9
	c1.5-15.4-3-28.9-10.6-42c-6-10.2-11-21-16.4-31.6C2071.4,2039.6,2070.5,2037,2068.5,2032.3z"/>
<path class="st3" d="M221.1,2122.2c13.9-30,28.9-59.5,43.7-90.2c1.7,1.6,3,2.3,3.5,3.4c13.7,28.1,27.4,56.2,41.1,84.3
	c0.3,1.1,0.6,2.3,0.8,3.5c-7.6,2.4-15.2,1.8-22.7,0.6c-1.9-0.3-3.6-3.5-4.8-5.7c-4.1-7.3-7.8-14.9-11.7-22.3c-1.3-2.4-2.8-4.8-5-8.6
	c-2.6,5-4.7,8.8-6.4,12.5c-2.9,6-5.5,12.1-8.3,18.2c-1.7,3.7-4.3,6.4-8.4,6.6c-6.6,0.3-13.2,0.1-19.8,0.1L221.1,2122.2z"/>
<path class="st3" d="M450.5,2068.9c2.1-3.8,3.6-6.2,4.8-8.6c3.5-7.3,7.1-14.5,10.3-22c2-4.8,5.1-6.5,10.1-6.3
	c6.2,0.3,12.4,0.3,20.6,0.3c-15.3,31.7-29.8,61.6-44.8,91.8c-5.7-6.1-43.1-82.7-44.8-91.1c7.7-1.7,15.3-1,23-0.5
	c1.9,0.2,4.2,2.8,5.2,4.9c3.8,7.5,7.2,15.1,10.9,22.7C446.8,2062.7,448.3,2065.1,450.5,2068.9z"/>
<path class="st3" d="M711.6,2089c-3.6,8.5-7.1,17-10.6,25.5c-3.9,9.7-4.7,10.2-15.5,10c-4.6-0.1-9.1,0-14.4,0
	c0.2-2.5-0.2-4.3,0.4-5.7c12.9-27.8,25.8-55.7,38.9-83.4c0.6-1,1.2-1.8,2-2.6c5,5.5,42.5,81.9,44.4,90.4c-7,2.4-14.2,1.4-21.2,0.8
	c-1.9-0.2-4.2-2.9-5.4-5c-4.3-7.6-8.1-15.4-12.2-23.1c-1.3-2.4-2.8-4.9-4.2-7.2L711.6,2089z"/>
<path class="st3" d="M570.7,2032.7h22.5c0.3,3.3,1,6.1,1,8.8c0.1,24.6,0.1,49.2,0,73.7c0,8.8-0.5,9.2-9.4,9.3
	c-16.2,0.2-14.5,0-14.5-14.7c0-22.3,0-44.6,0-66.8C570.2,2040,570.4,2036.9,570.7,2032.7z"/>
<path class="st3" d="M2205.9,1681.9c3.2-0.3,5.5-0.6,7.7-0.7c12.2,0,24.4-0.1,36.5,0.1c3.5,0,6.9,0.5,10.3,1.4
	c10.8,3,14.8,8,15.4,19.1c0.3,3.7,0.1,7.5-0.4,11.2c-1.1,7.4-5,12.9-12.5,15.1c-1.7,0.5-3.1,1.2-5.9,2.3
	c5.2,10.9,10.3,21.4,15.3,31.9c-11.5,4.7-16.2,3-20.9-6.7c-3-6-6.3-11.7-8.8-17.9c-2.7-6.8-7.3-9.2-14.3-8.3c-2,0.3-4,0.3-6.9,0.6
	c-0.5,2.4-0.9,5-1,7.5c-0.2,6.7,0,13.3-0.2,20c-0.2,6.4-1,7-7,7.1c-6.4,0.2-7.4-0.7-7.8-7.3c-0.1-1.1-0.1-2.3-0.1-3.5
	c0-21.1,0-42.3,0.1-63.4C2205.5,1687.9,2205.8,1685.3,2205.9,1681.9z M2222.5,1715.4c9.1,0.2,18.6,0.6,28,0.6
	c6.7,0,10.3-3.7,10.8-9.8c0.4-5.7-3.3-10.2-9.7-11.1c-4.3-0.6-8.6-1-13-1C2219,1693.3,2218.6,1694,2222.5,1715.4L2222.5,1715.4z"/>
<path class="st3" d="M954,895.2c0.3,1.7,0.6,2.4,0.3,2.9c-8.5,16.4-16.4,33.2-28.3,47.5c-6.2,7.7-13.8,14.1-22.4,18.8
	c-3.2,1.7-6.5,3-9.7,0.2c-2.8-2.5-2.3-5.8-1.2-8.9c7.1-20.6,17.9-38.9,35.5-52.3c4.9-3.7,11.1-5.8,17.1-8
	C947.9,894.4,951.2,895.2,954,895.2z"/>
<path class="st3" d="M1373.7,961.5c0.9-3.1,1.8-9.2,4.1-14.8c4.1-9.8,8.9-19.5,13.7-29.1c4.6-9.4,12.4-15.9,21.3-21.1
	c5.2-3,8.5-1,8.4,4.9c-0.2,2.3-0.5,4.6-1,6.8c-4.6,23.7-16.4,43.7-31.3,62c-2.3,2.8-4.3,6.6-9,5.3
	C1375.8,974.6,1373.7,970.4,1373.7,961.5z"/>
<path class="st3" d="M1144.6,898.7c-0.5,1.8-1.2,3.6-2,5.3c-5.9,11-11.7,22-17.9,32.7c-7.1,12.4-17.2,21.8-30.4,27.4
	c-2.1,0.9-6.1,1.6-6.9,0.5c-1.5-1.9-2.4-5.6-1.6-7.7c7.8-19.8,17.8-38.4,35.1-51.8C1128.4,899.3,1134.8,897.6,1144.6,898.7z"/>
</svg>
