<?xml version="1.0" encoding="utf-8"?>
<!-- Generator: Adobe Illustrator 25.0.1, SVG Export Plug-In . SVG Version: 6.00 Build 0)  -->
<svg version="1.1" id="Layer_1" xmlns="http://www.w3.org/2000/svg" xmlns:xlink="http://www.w3.org/1999/xlink" x="0px" y="0px"
	 viewBox="0 0 2500 2500" style="enable-background:new 0 0 2500 2500;" xml:space="preserve">
<style type="text/css">
	.st0{display:none;fill-rule:evenodd;clip-rule:evenodd;fill:#FFFFFF;}
	.st1{fill-rule:evenodd;clip-rule:evenodd;fill:#F7F7F7;}
</style>
<g>
	<path class="st0" d="M0,0h2500v2500H0V0z"/>
	<path class="st1" d="M73.5,1053.3v164.1h479.9c55.8,0,127.1-51.6,127.1-136.9c0-34.3,13.1-56.7-27.2-102.1l-61.4-72.7
		c-35.2-32.8,4.2-32.8,33.7-32.8h202.6v344.6H989V872.9h216.6V725.3H504.2c-85.3,0-127.1,81.9-124.7,124.6
		c2.4,42.7,10.2,96.3,81.1,160.8c64.7,58.8-32,42.7-41.7,42.7L73.5,1053.3L73.5,1053.3z M1560.9,725.3h-259.2l-145.3,492.1h161.7
		l26.2-68.9h170.6l25.3,68.9h158.4L1560.9,725.3L1560.9,725.3z M1380.4,1030.4l55.8-180.5l52.5,180.5H1380.4z M2210.6,1053.3
		c-62.3,0-62.3-23-62.3-23c53.4,0,100.8-77.8,100.8-157.5s-77.8-147.6-140.2-147.6h-348.8v492.1h177.2v-164.1
		c0,0,75.5,88.6,114.8,124.7c39.4,36.1,42.7,39.4,96.1,39.4h278.2v-164.1C2426.5,1053.3,2273,1053.3,2210.6,1053.3L2210.6,1053.3z
		 M2049.8,938.5h-112.5v-88.6h112.5C2101.4,849.9,2110.3,938.5,2049.8,938.5z M73.5,1279.8h181.3l45.9,164.1l42.7-164.1h190.3
		l49.2,164.1l49.2-164.1h157.5L645.3,1772H500.9l-63.3-233l-71.3,233H218.7L73.5,1279.8z M1161.8,1282.6H902.6l-145.3,492.1H919
		l26.3-68.9h170.6l25.3,68.9h158.4L1161.8,1282.6z M981.3,1587.7l55.8-180.5l52.5,180.5H981.3z M2213.9,1427.4
		c-29.5,0-61.7,3.4-26.5,36.3l61.4,72.7c40.3,45.4,39.7,64.3,39.7,98.7c0,85.3-84.4,136.9-140.2,136.9l-387.7,2.6
		c-53.4,0-56.7-3.3-96.1-39.4s-114.8-124.7-114.8-124.7v164.1h-177.2v-492.1h348.8c62.3,0,140.2,67.9,140.2,147.6
		s-47.4,157.5-100.8,157.5c0,0,23.5,23.6,62.9,23.6s191,0.2,191,0.2c9.7,0,106.4,16.1,41.7-42.7c-70.9-64.5-78.8-118.1-81.1-160.8
		s34.5-128.2,119.8-128.2h331.6v147.7L2213.9,1427.4L2213.9,1427.4L2213.9,1427.4z M1662.1,1495.7h-112.5v-88.6h112.5
		C1713.7,1407.1,1722.6,1495.7,1662.1,1495.7z"/>
</g>
</svg>
